<svg width="212" height="106" viewBox="0 0 212 106" fill="none" xmlns="http://www.w3.org/2000/svg">
<g clip-path="url(#clip0_116_2)">
<mask id="mask0_116_2" style="mask-type:luminance" maskUnits="userSpaceOnUse" x="0" y="0" width="212" height="106">
<path d="M0 0H211.619V105.018H0V0Z" fill="white"/>
</mask>
<g mask="url(#mask0_116_2)">
<path fill-rule="evenodd" clip-rule="evenodd" d="M3.57227 2.41467H208.045V102.604H3.57227V2.41467Z" stroke="black" stroke-miterlimit="10" stroke-linejoin="round"/>
</g>
<path d="M142.101 79.2374C142.001 78.6974 141.821 78.2874 141.561 78.0074C141.311 77.7274 140.926 77.5874 140.406 77.5874C140.066 77.5874 139.781 77.6474 139.551 77.7674C139.331 77.8774 139.151 78.0174 139.011 78.1874C138.881 78.3574 138.786 78.5374 138.726 78.7274C138.676 78.9174 138.646 79.0874 138.636 79.2374H142.101ZM138.636 80.5874C138.666 81.2674 138.841 81.7674 139.161 82.0874C139.481 82.3974 139.941 82.5524 140.541 82.5524C140.971 82.5524 141.341 82.4474 141.651 82.2374C141.961 82.0174 142.151 81.7874 142.221 81.5474H144.096C143.796 82.4674 143.336 83.1324 142.716 83.5424C142.096 83.9524 141.346 84.1574 140.466 84.1574C139.856 84.1574 139.306 84.0574 138.816 83.8574C138.326 83.6574 137.911 83.3774 137.571 83.0174C137.231 82.6574 136.966 82.2274 136.776 81.7274C136.596 81.2274 136.506 80.6774 136.506 80.0774C136.506 79.4974 136.601 78.9574 136.791 78.4574C136.981 77.9574 137.251 77.5274 137.601 77.1674C137.951 76.7974 138.366 76.5074 138.846 76.2974C139.336 76.0874 139.876 75.9824 140.466 75.9824C141.126 75.9824 141.701 76.1124 142.191 76.3724C142.681 76.6224 143.081 76.9624 143.391 77.3924C143.711 77.8224 143.941 78.3124 144.081 78.8624C144.221 79.4124 144.271 79.9874 144.231 80.5874H138.636ZM149.244 76.1924H150.804V77.6174H149.244V81.4574C149.244 81.8174 149.304 82.0574 149.424 82.1774C149.544 82.2974 149.784 82.3574 150.144 82.3574C150.384 82.3574 150.604 82.3374 150.804 82.2974V83.9624C150.624 83.9924 150.424 84.0124 150.204 84.0224C149.984 84.0324 149.769 84.0374 149.559 84.0374C149.229 84.0374 148.914 84.0124 148.614 83.9624C148.324 83.9224 148.064 83.8374 147.834 83.7074C147.614 83.5674 147.439 83.3774 147.309 83.1374C147.179 82.8974 147.114 82.5824 147.114 82.1924V77.6174H145.824V76.1924H147.114V73.8674H149.244V76.1924ZM158.088 79.2374C157.988 78.6974 157.808 78.2874 157.548 78.0074C157.298 77.7274 156.913 77.5874 156.393 77.5874C156.053 77.5874 155.768 77.6474 155.538 77.7674C155.318 77.8774 155.138 78.0174 154.998 78.1874C154.868 78.3574 154.773 78.5374 154.713 78.7274C154.663 78.9174 154.633 79.0874 154.623 79.2374H158.088ZM154.623 80.5874C154.653 81.2674 154.828 81.7674 155.148 82.0874C155.468 82.3974 155.928 82.5524 156.528 82.5524C156.958 82.5524 157.328 82.4474 157.638 82.2374C157.948 82.0174 158.138 81.7874 158.208 81.5474H160.083C159.783 82.4674 159.323 83.1324 158.703 83.5424C158.083 83.9524 157.333 84.1574 156.453 84.1574C155.843 84.1574 155.293 84.0574 154.803 83.8574C154.313 83.6574 153.898 83.3774 153.558 83.0174C153.218 82.6574 152.953 82.2274 152.763 81.7274C152.583 81.2274 152.493 80.6774 152.493 80.0774C152.493 79.4974 152.588 78.9574 152.778 78.4574C152.968 77.9574 153.238 77.5274 153.588 77.1674C153.938 76.7974 154.353 76.5074 154.833 76.2974C155.323 76.0874 155.863 75.9824 156.453 75.9824C157.113 75.9824 157.688 76.1124 158.178 76.3724C158.668 76.6224 159.068 76.9624 159.378 77.3924C159.698 77.8224 159.928 78.3124 160.068 78.8624C160.208 79.4124 160.258 79.9874 160.218 80.5874H154.623ZM162.531 76.1924H164.556V77.6324H164.586C164.686 77.3924 164.821 77.1724 164.991 76.9724C165.161 76.7624 165.356 76.5874 165.576 76.4474C165.796 76.2974 166.031 76.1824 166.281 76.1024C166.541 76.0224 166.801 75.9824 167.061 75.9824C167.221 75.9824 167.376 76.0074 167.526 76.0574V78.0374C167.426 78.0174 167.306 78.0024 167.166 77.9924C167.026 77.9724 166.891 77.9624 166.761 77.9624C166.371 77.9624 166.041 78.0274 165.771 78.1574C165.501 78.2874 165.281 78.4674 165.111 78.6974C164.951 78.9174 164.836 79.1824 164.766 79.4924C164.696 79.7924 164.661 80.1124 164.661 80.4524V83.9474H162.531V76.1924ZM169.675 76.1924H171.7V77.2724H171.745C172.015 76.8324 172.365 76.5074 172.795 76.2974C173.225 76.0874 173.665 75.9824 174.115 75.9824C174.685 75.9824 175.15 76.0624 175.51 76.2224C175.88 76.3724 176.17 76.5874 176.38 76.8674C176.59 77.1374 176.735 77.4724 176.815 77.8724C176.905 78.2624 176.95 78.6974 176.95 79.1774V83.9474H174.82V79.5674C174.82 78.9274 174.715 78.4524 174.505 78.1424C174.305 77.8224 173.955 77.6624 173.455 77.6624C172.875 77.6624 172.455 77.8374 172.195 78.1874C171.935 78.5274 171.805 79.0924 171.805 79.8824V83.9474H169.675V76.1924ZM179.526 78.5774C179.556 78.0774 179.681 77.6624 179.901 77.3324C180.121 77.0024 180.401 76.7374 180.741 76.5374C181.081 76.3374 181.461 76.1974 181.881 76.1174C182.301 76.0274 182.731 75.9824 183.171 75.9824C183.561 75.9824 183.956 76.0124 184.356 76.0724C184.756 76.1224 185.121 76.2274 185.451 76.3874C185.781 76.5474 186.051 76.7724 186.261 77.0624C186.471 77.3524 186.576 77.7274 186.576 78.1874V82.2224C186.576 82.5724 186.596 82.9074 186.636 83.2274C186.676 83.5474 186.746 83.7874 186.846 83.9474H184.686C184.646 83.8274 184.611 83.7074 184.581 83.5874C184.561 83.4574 184.546 83.3274 184.536 83.1974C184.196 83.5474 183.796 83.7974 183.336 83.9474C182.876 84.0874 182.406 84.1574 181.926 84.1574C181.556 84.1574 181.211 84.1074 180.891 84.0074C180.571 83.9174 180.291 83.7774 180.051 83.5874C179.811 83.3974 179.621 83.1574 179.481 82.8674C179.351 82.5774 179.286 82.2324 179.286 81.8324C179.286 81.3924 179.361 81.0324 179.511 80.7524C179.661 80.4624 179.861 80.2324 180.111 80.0624C180.361 79.8924 180.641 79.7674 180.951 79.6874C181.271 79.5974 181.596 79.5274 181.926 79.4774C182.256 79.4274 182.571 79.3874 182.871 79.3574C183.171 79.3274 183.436 79.2824 183.666 79.2224C183.906 79.1624 184.096 79.0774 184.236 78.9674C184.376 78.8474 184.446 78.6774 184.446 78.4574C184.446 78.2274 184.406 78.0474 184.326 77.9174C184.256 77.7774 184.156 77.6724 184.026 77.6024C183.906 77.5224 183.761 77.4724 183.591 77.4524C183.431 77.4224 183.256 77.4074 183.066 77.4074C182.656 77.4074 182.326 77.4974 182.076 77.6774C181.836 77.8574 181.696 78.1574 181.656 78.5774H179.526ZM184.446 80.1524C184.356 80.2324 184.241 80.2974 184.101 80.3474C183.971 80.3874 183.826 80.4224 183.666 80.4524C183.516 80.4824 183.351 80.5074 183.171 80.5274C183.001 80.5474 182.836 80.5724 182.676 80.6024C182.506 80.6324 182.346 80.6724 182.196 80.7224C182.046 80.7724 181.911 80.8424 181.791 80.9324C181.681 81.0124 181.591 81.1224 181.521 81.2624C181.451 81.3924 181.416 81.5524 181.416 81.7424C181.416 81.9424 181.451 82.1074 181.521 82.2374C181.591 82.3574 181.686 82.4574 181.806 82.5374C181.926 82.6074 182.066 82.6574 182.226 82.6874C182.386 82.7174 182.551 82.7324 182.721 82.7324C183.141 82.7324 183.466 82.6624 183.696 82.5224C183.926 82.3824 184.096 82.2174 184.206 82.0274C184.316 81.8274 184.381 81.6274 184.401 81.4274C184.431 81.2274 184.446 81.0674 184.446 80.9474V80.1524Z" fill="black"/>
<path d="M136.139 58.5774C136.169 58.0774 136.294 57.6624 136.514 57.3324C136.734 57.0024 137.014 56.7374 137.354 56.5374C137.694 56.3374 138.074 56.1974 138.494 56.1174C138.914 56.0274 139.344 55.9824 139.784 55.9824C140.174 55.9824 140.569 56.0124 140.969 56.0724C141.369 56.1224 141.734 56.2274 142.064 56.3874C142.394 56.5474 142.664 56.7724 142.874 57.0624C143.084 57.3524 143.189 57.7274 143.189 58.1874V62.2224C143.189 62.5724 143.209 62.9074 143.249 63.2274C143.289 63.5474 143.359 63.7874 143.459 63.9474H141.299C141.259 63.8274 141.224 63.7074 141.194 63.5874C141.174 63.4574 141.159 63.3274 141.149 63.1974C140.809 63.5474 140.409 63.7974 139.949 63.9474C139.489 64.0874 139.019 64.1574 138.539 64.1574C138.169 64.1574 137.824 64.1074 137.504 64.0074C137.184 63.9174 136.904 63.7774 136.664 63.5874C136.424 63.3974 136.234 63.1574 136.094 62.8674C135.964 62.5774 135.899 62.2324 135.899 61.8324C135.899 61.3924 135.974 61.0324 136.124 60.7524C136.274 60.4624 136.474 60.2324 136.724 60.0624C136.974 59.8924 137.254 59.7674 137.564 59.6874C137.884 59.5974 138.209 59.5274 138.539 59.4774C138.869 59.4274 139.184 59.3874 139.484 59.3574C139.784 59.3274 140.049 59.2824 140.279 59.2224C140.519 59.1624 140.709 59.0774 140.849 58.9674C140.989 58.8474 141.059 58.6774 141.059 58.4574C141.059 58.2274 141.019 58.0474 140.939 57.9174C140.869 57.7774 140.769 57.6724 140.639 57.6024C140.519 57.5224 140.374 57.4724 140.204 57.4524C140.044 57.4224 139.869 57.4074 139.679 57.4074C139.269 57.4074 138.939 57.4974 138.689 57.6774C138.449 57.8574 138.309 58.1574 138.269 58.5774H136.139ZM141.059 60.1524C140.969 60.2324 140.854 60.2974 140.714 60.3474C140.584 60.3874 140.439 60.4224 140.279 60.4524C140.129 60.4824 139.964 60.5074 139.784 60.5274C139.614 60.5474 139.449 60.5724 139.289 60.6024C139.119 60.6324 138.959 60.6724 138.809 60.7224C138.659 60.7724 138.524 60.8424 138.404 60.9324C138.294 61.0124 138.204 61.1224 138.134 61.2624C138.064 61.3924 138.029 61.5524 138.029 61.7424C138.029 61.9424 138.064 62.1074 138.134 62.2374C138.204 62.3574 138.299 62.4574 138.419 62.5374C138.539 62.6074 138.679 62.6574 138.839 62.6874C138.999 62.7174 139.164 62.7324 139.334 62.7324C139.754 62.7324 140.079 62.6624 140.309 62.5224C140.539 62.3824 140.709 62.2174 140.819 62.0274C140.929 61.8274 140.994 61.6274 141.014 61.4274C141.044 61.2274 141.059 61.0674 141.059 60.9474V60.1524ZM152.148 60.0474C152.148 59.7374 152.118 59.4324 152.058 59.1324C151.998 58.8324 151.893 58.5724 151.743 58.3524C151.603 58.1224 151.413 57.9374 151.173 57.7974C150.943 57.6574 150.658 57.5874 150.318 57.5874C149.968 57.5874 149.673 57.6574 149.433 57.7974C149.193 57.9374 148.998 58.1224 148.848 58.3524C148.708 58.5824 148.603 58.8474 148.533 59.1474C148.473 59.4374 148.443 59.7424 148.443 60.0624C148.443 60.3624 148.478 60.6624 148.548 60.9624C148.618 61.2624 148.728 61.5324 148.878 61.7724C149.038 62.0024 149.233 62.1924 149.463 62.3424C149.703 62.4824 149.988 62.5524 150.318 62.5524C150.668 62.5524 150.958 62.4824 151.188 62.3424C151.428 62.2024 151.618 62.0174 151.758 61.7874C151.898 61.5474 151.998 61.2774 152.058 60.9774C152.118 60.6774 152.148 60.3674 152.148 60.0474ZM152.178 62.9574H152.148C151.898 63.3774 151.568 63.6824 151.158 63.8724C150.748 64.0624 150.293 64.1574 149.793 64.1574C149.203 64.1574 148.688 64.0424 148.248 63.8124C147.818 63.5824 147.458 63.2774 147.168 62.8974C146.888 62.5074 146.673 62.0624 146.523 61.5624C146.383 61.0624 146.313 60.5424 146.313 60.0024C146.313 59.4824 146.383 58.9824 146.523 58.5024C146.673 58.0124 146.888 57.5824 147.168 57.2124C147.458 56.8424 147.818 56.5474 148.248 56.3274C148.678 56.0974 149.178 55.9824 149.748 55.9824C150.208 55.9824 150.643 56.0824 151.053 56.2824C151.473 56.4724 151.803 56.7574 152.043 57.1374H152.073V53.2374H154.203V63.9474H152.178V62.9574ZM157.673 56.1924H159.683V57.2424H159.713C159.993 56.8424 160.328 56.5324 160.718 56.3124C161.118 56.0924 161.573 55.9824 162.083 55.9824C162.573 55.9824 163.018 56.0824 163.418 56.2824C163.828 56.4724 164.138 56.8024 164.348 57.2724C164.578 56.9324 164.888 56.6324 165.278 56.3724C165.678 56.1124 166.148 55.9824 166.688 55.9824C167.098 55.9824 167.478 56.0324 167.828 56.1324C168.178 56.2324 168.478 56.3924 168.728 56.6124C168.978 56.8324 169.173 57.1224 169.313 57.4824C169.453 57.8324 169.523 58.2574 169.523 58.7574V63.9474H167.393V59.5524C167.393 59.2924 167.383 59.0474 167.363 58.8174C167.343 58.5874 167.288 58.3874 167.198 58.2174C167.108 58.0474 166.973 57.9124 166.793 57.8124C166.623 57.7124 166.388 57.6624 166.088 57.6624C165.788 57.6624 165.543 57.7224 165.353 57.8424C165.173 57.9524 165.028 58.1024 164.918 58.2924C164.818 58.4724 164.748 58.6824 164.708 58.9224C164.678 59.1524 164.663 59.3874 164.663 59.6274V63.9474H162.533V59.5974C162.533 59.3774 162.528 59.1524 162.518 58.9224C162.508 58.6924 162.463 58.4824 162.383 58.2924C162.313 58.1024 162.188 57.9524 162.008 57.8424C161.838 57.7224 161.583 57.6624 161.243 57.6624C161.133 57.6624 160.998 57.6874 160.838 57.7374C160.678 57.7774 160.518 57.8624 160.358 57.9924C160.208 58.1124 160.078 58.2924 159.968 58.5324C159.858 58.7624 159.803 59.0674 159.803 59.4474V63.9474H157.673V56.1924ZM175.196 54.9924H173.066V53.2374H175.196V54.9924ZM173.066 56.1924H175.196V63.9474H173.066V56.1924ZM178.674 56.1924H180.699V57.2724H180.744C181.014 56.8324 181.364 56.5074 181.794 56.2974C182.224 56.0874 182.664 55.9824 183.114 55.9824C183.684 55.9824 184.149 56.0624 184.509 56.2224C184.879 56.3724 185.169 56.5874 185.379 56.8674C185.589 57.1374 185.734 57.4724 185.814 57.8724C185.904 58.2624 185.949 58.6974 185.949 59.1774V63.9474H183.819V59.5674C183.819 58.9274 183.714 58.4524 183.504 58.1424C183.304 57.8224 182.954 57.6624 182.454 57.6624C181.874 57.6624 181.454 57.8374 181.194 58.1874C180.934 58.5274 180.804 59.0924 180.804 59.8824V63.9474H178.674V56.1924Z" fill="black"/>
<path d="M15.5794 17.4821H27.1394V19.6421H22.5994V31.7621H20.0994V19.6421H15.5794V17.4821ZM35.1483 25.6821C35.1217 25.3221 35.0417 24.9754 34.9083 24.6421C34.7883 24.3088 34.615 24.0221 34.3883 23.7821C34.175 23.5288 33.9083 23.3288 33.5883 23.1821C33.2817 23.0221 32.935 22.9421 32.5483 22.9421C32.1483 22.9421 31.7817 23.0154 31.4483 23.1621C31.1283 23.2954 30.8483 23.4888 30.6083 23.7421C30.3817 23.9821 30.195 24.2688 30.0483 24.6021C29.915 24.9354 29.8417 25.2954 29.8283 25.6821H35.1483ZM29.8283 27.1821C29.8283 27.5821 29.8817 27.9688 29.9883 28.3421C30.1083 28.7154 30.2817 29.0421 30.5083 29.3221C30.735 29.6021 31.0217 29.8288 31.3683 30.0021C31.715 30.1621 32.1283 30.2421 32.6083 30.2421C33.275 30.2421 33.8083 30.1021 34.2083 29.8221C34.6217 29.5288 34.9283 29.0954 35.1283 28.5221H37.2883C37.1683 29.0821 36.9617 29.5821 36.6683 30.0221C36.375 30.4621 36.0217 30.8354 35.6083 31.1421C35.195 31.4354 34.7283 31.6554 34.2083 31.8021C33.7017 31.9621 33.1683 32.0421 32.6083 32.0421C31.795 32.0421 31.075 31.9088 30.4483 31.6421C29.8217 31.3754 29.2883 31.0021 28.8483 30.5221C28.4217 30.0421 28.095 29.4688 27.8683 28.8021C27.655 28.1354 27.5483 27.4021 27.5483 26.6021C27.5483 25.8688 27.6617 25.1754 27.8883 24.5221C28.1283 23.8554 28.4617 23.2754 28.8883 22.7821C29.3283 22.2754 29.855 21.8754 30.4683 21.5821C31.0817 21.2888 31.775 21.1421 32.5483 21.1421C33.3617 21.1421 34.0883 21.3154 34.7283 21.6621C35.3817 21.9954 35.9217 22.4421 36.3483 23.0021C36.775 23.5621 37.0817 24.2088 37.2683 24.9421C37.4683 25.6621 37.5217 26.4088 37.4283 27.1821H29.8283ZM42.6816 28.4421C42.7483 29.1088 43.0016 29.5754 43.4416 29.8421C43.8816 30.1088 44.4083 30.2421 45.0216 30.2421C45.235 30.2421 45.475 30.2288 45.7416 30.2021C46.0216 30.1621 46.2816 30.0954 46.5216 30.0021C46.7616 29.9088 46.955 29.7754 47.1016 29.6021C47.2616 29.4154 47.335 29.1754 47.3216 28.8821C47.3083 28.5888 47.2016 28.3488 47.0016 28.1621C46.8016 27.9754 46.5416 27.8288 46.2216 27.7221C45.915 27.6021 45.5616 27.5021 45.1616 27.4221C44.7616 27.3421 44.355 27.2554 43.9416 27.1621C43.515 27.0688 43.1016 26.9554 42.7016 26.8221C42.315 26.6888 41.9616 26.5088 41.6416 26.2821C41.335 26.0554 41.0883 25.7688 40.9016 25.4221C40.715 25.0621 40.6216 24.6221 40.6216 24.1021C40.6216 23.5421 40.755 23.0754 41.0216 22.7021C41.3016 22.3154 41.6483 22.0088 42.0616 21.7821C42.4883 21.5421 42.955 21.3754 43.4616 21.2821C43.9816 21.1888 44.475 21.1421 44.9416 21.1421C45.475 21.1421 45.9816 21.2021 46.4616 21.3221C46.955 21.4288 47.395 21.6088 47.7816 21.8621C48.1816 22.1154 48.5083 22.4488 48.7616 22.8621C49.0283 23.2621 49.195 23.7488 49.2616 24.3221H46.8816C46.775 23.7754 46.5216 23.4088 46.1216 23.2221C45.735 23.0354 45.2883 22.9421 44.7816 22.9421C44.6216 22.9421 44.4283 22.9554 44.2016 22.9821C43.9883 23.0088 43.7816 23.0621 43.5816 23.1421C43.395 23.2088 43.235 23.3154 43.1016 23.4621C42.9683 23.5954 42.9016 23.7754 42.9016 24.0021C42.9016 24.2821 42.995 24.5088 43.1816 24.6821C43.3816 24.8554 43.635 25.0021 43.9416 25.1221C44.2616 25.2288 44.6216 25.3221 45.0216 25.4021C45.4216 25.4821 45.835 25.5688 46.2616 25.6621C46.675 25.7554 47.0816 25.8688 47.4816 26.0021C47.8816 26.1354 48.235 26.3154 48.5416 26.5421C48.8616 26.7688 49.115 27.0554 49.3016 27.4021C49.5016 27.7488 49.6016 28.1754 49.6016 28.6821C49.6016 29.2954 49.4616 29.8154 49.1816 30.2421C48.9016 30.6688 48.535 31.0154 48.0816 31.2821C47.6416 31.5488 47.1483 31.7421 46.6016 31.8621C46.055 31.9821 45.515 32.0421 44.9816 32.0421C44.3283 32.0421 43.7216 31.9688 43.1616 31.8221C42.615 31.6754 42.135 31.4554 41.7216 31.1621C41.3216 30.8554 41.0016 30.4821 40.7616 30.0421C40.535 29.5888 40.415 29.0554 40.4016 28.4421H42.6816ZM52.0927 21.4221H53.8127V18.3221H56.0927V21.4221H58.1527V23.1221H56.0927V28.6421C56.0927 28.8821 56.0994 29.0888 56.1127 29.2621C56.1394 29.4354 56.186 29.5821 56.2527 29.7021C56.3327 29.8221 56.4461 29.9154 56.5927 29.9821C56.7394 30.0354 56.9394 30.0621 57.1927 30.0621C57.3527 30.0621 57.5127 30.0621 57.6727 30.0621C57.8327 30.0488 57.9927 30.0221 58.1527 29.9821V31.7421C57.8994 31.7688 57.6527 31.7954 57.4127 31.8221C57.1727 31.8488 56.926 31.8621 56.6727 31.8621C56.0727 31.8621 55.586 31.8088 55.2127 31.7021C54.8527 31.5821 54.566 31.4154 54.3527 31.2021C54.1527 30.9754 54.0127 30.6954 53.9327 30.3621C53.866 30.0288 53.826 29.6488 53.8127 29.2221V23.1221H52.0927V21.4221ZM70.6729 31.7621H68.4329V30.3221H68.3929C68.1129 30.8421 67.6929 31.2621 67.1329 31.5821C66.5862 31.8888 66.0262 32.0421 65.4529 32.0421C64.0929 32.0421 63.1062 31.7088 62.4929 31.0421C61.8929 30.3621 61.5929 29.3421 61.5929 27.9821V21.4221H63.8729V27.7621C63.8729 28.6688 64.0462 29.3088 64.3929 29.6821C64.7395 30.0554 65.2262 30.2421 65.8529 30.2421C66.3329 30.2421 66.7329 30.1688 67.0529 30.0221C67.3729 29.8754 67.6329 29.6821 67.8329 29.4421C68.0329 29.1888 68.1729 28.8888 68.2529 28.5421C68.3462 28.1954 68.3929 27.8221 68.3929 27.4221V21.4221H70.6729V31.7621ZM74.9372 21.4221H77.0972V22.8221H77.1372C77.4572 22.2221 77.9039 21.7954 78.4772 21.5421C79.0506 21.2754 79.6706 21.1421 80.3372 21.1421C81.1506 21.1421 81.8572 21.2888 82.4572 21.5821C83.0706 21.8621 83.5772 22.2554 83.9772 22.7621C84.3772 23.2554 84.6772 23.8354 84.8772 24.5021C85.0772 25.1688 85.1772 25.8821 85.1772 26.6421C85.1772 27.3354 85.0839 28.0088 84.8972 28.6621C84.7239 29.3154 84.4506 29.8954 84.0772 30.4021C83.7172 30.8954 83.2572 31.2954 82.6972 31.6021C82.1372 31.8954 81.4772 32.0421 80.7172 32.0421C80.3839 32.0421 80.0506 32.0088 79.7172 31.9421C79.3839 31.8888 79.0639 31.7954 78.7572 31.6621C78.4506 31.5288 78.1639 31.3621 77.8972 31.1621C77.6439 30.9488 77.4306 30.7021 77.2572 30.4221H77.2172V35.5821H74.9372V21.4221ZM82.8972 26.6021C82.8972 26.1354 82.8372 25.6821 82.7172 25.2421C82.5972 24.8021 82.4172 24.4154 82.1772 24.0821C81.9372 23.7354 81.6372 23.4621 81.2772 23.2621C80.9172 23.0488 80.5039 22.9421 80.0372 22.9421C79.0772 22.9421 78.3506 23.2754 77.8572 23.9421C77.3772 24.6088 77.1372 25.4954 77.1372 26.6021C77.1372 27.1221 77.1972 27.6088 77.3172 28.0621C77.4506 28.5021 77.6439 28.8821 77.8972 29.2021C78.1506 29.5221 78.4506 29.7754 78.7972 29.9621C79.1572 30.1488 79.5706 30.2421 80.0372 30.2421C80.5572 30.2421 80.9972 30.1354 81.3572 29.9221C81.7172 29.7088 82.0106 29.4354 82.2372 29.1021C82.4772 28.7554 82.6439 28.3688 82.7372 27.9421C82.8439 27.5021 82.8972 27.0554 82.8972 26.6021ZM88.9638 21.4221H91.1238V22.8221H91.1638C91.4838 22.2221 91.9305 21.7954 92.5038 21.5421C93.0771 21.2754 93.6971 21.1421 94.3638 21.1421C95.1771 21.1421 95.8838 21.2888 96.4838 21.5821C97.0971 21.8621 97.6038 22.2554 98.0038 22.7621C98.4038 23.2554 98.7038 23.8354 98.9038 24.5021C99.1038 25.1688 99.2038 25.8821 99.2038 26.6421C99.2038 27.3354 99.1105 28.0088 98.9238 28.6621C98.7505 29.3154 98.4771 29.8954 98.1038 30.4021C97.7438 30.8954 97.2838 31.2954 96.7238 31.6021C96.1638 31.8954 95.5038 32.0421 94.7438 32.0421C94.4105 32.0421 94.0771 32.0088 93.7438 31.9421C93.4105 31.8888 93.0905 31.7954 92.7838 31.6621C92.4771 31.5288 92.1905 31.3621 91.9238 31.1621C91.6705 30.9488 91.4571 30.7021 91.2838 30.4221H91.2438V35.5821H88.9638V21.4221ZM96.9238 26.6021C96.9238 26.1354 96.8638 25.6821 96.7438 25.2421C96.6238 24.8021 96.4438 24.4154 96.2038 24.0821C95.9638 23.7354 95.6638 23.4621 95.3038 23.2621C94.9438 23.0488 94.5305 22.9421 94.0638 22.9421C93.1038 22.9421 92.3771 23.2754 91.8838 23.9421C91.4038 24.6088 91.1638 25.4954 91.1638 26.6021C91.1638 27.1221 91.2238 27.6088 91.3438 28.0621C91.4771 28.5021 91.6705 28.8821 91.9238 29.2021C92.1771 29.5221 92.4771 29.7754 92.8238 29.9621C93.1838 30.1488 93.5971 30.2421 94.0638 30.2421C94.5838 30.2421 95.0238 30.1354 95.3838 29.9221C95.7438 29.7088 96.0371 29.4354 96.2638 29.1021C96.5038 28.7554 96.6705 28.3688 96.7638 27.9421C96.8705 27.5021 96.9238 27.0554 96.9238 26.6021ZM112.49 31.2221C112.49 32.7821 112.05 33.9421 111.17 34.7021C110.304 35.4754 109.05 35.8621 107.41 35.8621C106.89 35.8621 106.364 35.8088 105.83 35.7021C105.31 35.5954 104.83 35.4154 104.39 35.1621C103.964 34.9088 103.604 34.5754 103.31 34.1621C103.017 33.7488 102.844 33.2421 102.79 32.6421H105.07C105.137 32.9621 105.25 33.2221 105.41 33.4221C105.57 33.6221 105.757 33.7754 105.97 33.8821C106.197 34.0021 106.444 34.0754 106.71 34.1021C106.977 34.1421 107.257 34.1621 107.55 34.1621C108.47 34.1621 109.144 33.9354 109.57 33.4821C109.997 33.0288 110.21 32.3754 110.21 31.5221V29.9421H110.17C109.85 30.5154 109.41 30.9621 108.85 31.2821C108.304 31.6021 107.71 31.7621 107.07 31.7621C106.244 31.7621 105.537 31.6221 104.95 31.3421C104.377 31.0488 103.897 30.6554 103.51 30.1621C103.137 29.6554 102.864 29.0754 102.69 28.4221C102.517 27.7688 102.43 27.0688 102.43 26.3221C102.43 25.6288 102.537 24.9688 102.75 24.3421C102.964 23.7154 103.27 23.1688 103.67 22.7021C104.07 22.2221 104.557 21.8421 105.13 21.5621C105.717 21.2821 106.377 21.1421 107.11 21.1421C107.764 21.1421 108.364 21.2821 108.91 21.5621C109.457 21.8288 109.877 22.2554 110.17 22.8421H110.21V21.4221H112.49V31.2221ZM107.43 29.9621C107.937 29.9621 108.364 29.8621 108.71 29.6621C109.07 29.4488 109.357 29.1754 109.57 28.8421C109.797 28.4954 109.957 28.1088 110.05 27.6821C110.157 27.2421 110.21 26.8021 110.21 26.3621C110.21 25.9221 110.157 25.4954 110.05 25.0821C109.944 24.6688 109.777 24.3021 109.55 23.9821C109.337 23.6621 109.05 23.4088 108.69 23.2221C108.344 23.0354 107.924 22.9421 107.43 22.9421C106.924 22.9421 106.497 23.0488 106.15 23.2621C105.804 23.4754 105.524 23.7554 105.31 24.1021C105.097 24.4354 104.944 24.8221 104.85 25.2621C104.757 25.6888 104.71 26.1154 104.71 26.5421C104.71 26.9688 104.764 27.3888 104.87 27.8021C104.977 28.2021 105.137 28.5621 105.35 28.8821C105.577 29.2021 105.857 29.4621 106.19 29.6621C106.537 29.8621 106.95 29.9621 107.43 29.9621ZM116.646 17.4821H118.926V19.6421H116.646V17.4821ZM116.646 21.4221H118.926V31.7621H116.646V21.4221ZM122.19 21.4221H123.89V20.5621C123.89 19.9088 123.97 19.3821 124.13 18.9821C124.29 18.5688 124.503 18.2554 124.77 18.0421C125.037 17.8154 125.337 17.6688 125.67 17.6021C126.017 17.5221 126.377 17.4821 126.75 17.4821C127.483 17.4821 128.017 17.5288 128.35 17.6221V19.4021C128.203 19.3621 128.043 19.3354 127.87 19.3221C127.71 19.2954 127.517 19.2821 127.29 19.2821C126.983 19.2821 126.717 19.3554 126.49 19.5021C126.277 19.6488 126.17 19.9354 126.17 20.3621V21.4221H128.11V23.1221H126.17V31.7621H123.89V23.1221H122.19V21.4221ZM130.279 21.4221H131.999V18.3221H134.279V21.4221H136.339V23.1221H134.279V28.6421C134.279 28.8821 134.285 29.0888 134.299 29.2621C134.325 29.4354 134.372 29.5821 134.439 29.7021C134.519 29.8221 134.632 29.9154 134.779 29.9821C134.925 30.0354 135.125 30.0621 135.379 30.0621C135.539 30.0621 135.699 30.0621 135.859 30.0621C136.019 30.0488 136.179 30.0221 136.339 29.9821V31.7421C136.085 31.7688 135.839 31.7954 135.599 31.8221C135.359 31.8488 135.112 31.8621 134.859 31.8621C134.259 31.8621 133.772 31.8088 133.399 31.7021C133.039 31.5821 132.752 31.4154 132.539 31.2021C132.339 30.9754 132.199 30.6954 132.119 30.3621C132.052 30.0288 132.012 29.6488 131.999 29.2221V23.1221H130.279V21.4221ZM146.879 25.6821C146.852 25.3221 146.772 24.9754 146.639 24.6421C146.519 24.3088 146.345 24.0221 146.119 23.7821C145.905 23.5288 145.639 23.3288 145.319 23.1821C145.012 23.0221 144.665 22.9421 144.279 22.9421C143.879 22.9421 143.512 23.0154 143.179 23.1621C142.859 23.2954 142.579 23.4888 142.339 23.7421C142.112 23.9821 141.925 24.2688 141.779 24.6021C141.645 24.9354 141.572 25.2954 141.559 25.6821H146.879ZM141.559 27.1821C141.559 27.5821 141.612 27.9688 141.719 28.3421C141.839 28.7154 142.012 29.0421 142.239 29.3221C142.465 29.6021 142.752 29.8288 143.099 30.0021C143.445 30.1621 143.859 30.2421 144.339 30.2421C145.005 30.2421 145.539 30.1021 145.939 29.8221C146.352 29.5288 146.659 29.0954 146.859 28.5221H149.019C148.899 29.0821 148.692 29.5821 148.399 30.0221C148.105 30.4621 147.752 30.8354 147.339 31.1421C146.925 31.4354 146.459 31.6554 145.939 31.8021C145.432 31.9621 144.899 32.0421 144.339 32.0421C143.525 32.0421 142.805 31.9088 142.179 31.6421C141.552 31.3754 141.019 31.0021 140.579 30.5221C140.152 30.0421 139.825 29.4688 139.599 28.8021C139.385 28.1354 139.279 27.4021 139.279 26.6021C139.279 25.8688 139.392 25.1754 139.619 24.5221C139.859 23.8554 140.192 23.2754 140.619 22.7821C141.059 22.2754 141.585 21.8754 142.199 21.5821C142.812 21.2888 143.505 21.1421 144.279 21.1421C145.092 21.1421 145.819 21.3154 146.459 21.6621C147.112 21.9954 147.652 22.4421 148.079 23.0021C148.505 23.5621 148.812 24.2088 148.999 24.9421C149.199 25.6621 149.252 26.4088 149.159 27.1821H141.559ZM152.692 21.4221H154.832V23.4221H154.872C154.939 23.1421 155.065 22.8688 155.252 22.6021C155.452 22.3354 155.685 22.0954 155.952 21.8821C156.232 21.6554 156.539 21.4754 156.872 21.3421C157.205 21.2088 157.545 21.1421 157.892 21.1421C158.159 21.1421 158.339 21.1488 158.432 21.1621C158.539 21.1754 158.645 21.1888 158.752 21.2021V23.4021C158.592 23.3754 158.425 23.3554 158.252 23.3421C158.092 23.3154 157.932 23.3021 157.772 23.3021C157.385 23.3021 157.019 23.3821 156.672 23.5421C156.339 23.6888 156.045 23.9154 155.792 24.2221C155.539 24.5154 155.339 24.8821 155.192 25.3221C155.045 25.7621 154.972 26.2688 154.972 26.8421V31.7621H152.692V21.4221Z" fill="black"/>
<path d="M19.4244 53.2374H21.4194L25.5444 63.9474H23.5344L22.5294 61.1124H18.2544L17.2494 63.9474H15.3144L19.4244 53.2374ZM18.7644 59.6874H22.0344L20.4294 55.0824H20.3844L18.7644 59.6874ZM26.9243 56.1924H28.5443V57.3324L28.5743 57.3624C28.8343 56.9324 29.1743 56.5974 29.5943 56.3574C30.0143 56.1074 30.4793 55.9824 30.9893 55.9824C31.8393 55.9824 32.5093 56.2024 32.9993 56.6424C33.4893 57.0824 33.7343 57.7424 33.7343 58.6224V63.9474H32.0243V59.0724C32.0043 58.4624 31.8743 58.0224 31.6343 57.7524C31.3943 57.4724 31.0193 57.3324 30.5093 57.3324C30.2193 57.3324 29.9593 57.3874 29.7293 57.4974C29.4993 57.5974 29.3043 57.7424 29.1443 57.9324C28.9843 58.1124 28.8593 58.3274 28.7693 58.5774C28.6793 58.8274 28.6343 59.0924 28.6343 59.3724V63.9474H26.9243V56.1924ZM35.3726 56.1924H37.2326L39.1976 62.1474H39.2276L41.1176 56.1924H42.8876L40.1126 63.9474H38.1926L35.3726 56.1924ZM51.0109 62.2224C51.0109 62.4324 51.0359 62.5824 51.0859 62.6724C51.1459 62.7624 51.2559 62.8074 51.4159 62.8074C51.4659 62.8074 51.5259 62.8074 51.5959 62.8074C51.6659 62.8074 51.7459 62.7974 51.8359 62.7774V63.9624C51.7759 63.9824 51.6959 64.0024 51.5959 64.0224C51.5059 64.0524 51.4109 64.0774 51.3109 64.0974C51.2109 64.1174 51.1109 64.1324 51.0109 64.1424C50.9109 64.1524 50.8259 64.1574 50.7559 64.1574C50.4059 64.1574 50.1159 64.0874 49.8859 63.9474C49.6559 63.8074 49.5059 63.5624 49.4359 63.2124C49.0959 63.5424 48.6759 63.7824 48.1759 63.9324C47.6859 64.0824 47.2109 64.1574 46.7509 64.1574C46.4009 64.1574 46.0659 64.1074 45.7459 64.0074C45.4259 63.9174 45.1409 63.7824 44.8909 63.6024C44.6509 63.4124 44.4559 63.1774 44.3059 62.8974C44.1659 62.6074 44.0959 62.2724 44.0959 61.8924C44.0959 61.4124 44.1809 61.0224 44.3509 60.7224C44.5309 60.4224 44.7609 60.1874 45.0409 60.0174C45.3309 59.8474 45.6509 59.7274 46.0009 59.6574C46.3609 59.5774 46.7209 59.5174 47.0809 59.4774C47.3909 59.4174 47.6859 59.3774 47.9659 59.3574C48.2459 59.3274 48.4909 59.2824 48.7009 59.2224C48.9209 59.1624 49.0909 59.0724 49.2109 58.9524C49.3409 58.8224 49.4059 58.6324 49.4059 58.3824C49.4059 58.1624 49.3509 57.9824 49.2409 57.8424C49.1409 57.7024 49.0109 57.5974 48.8509 57.5274C48.7009 57.4474 48.5309 57.3974 48.3409 57.3774C48.1509 57.3474 47.9709 57.3324 47.8009 57.3324C47.3209 57.3324 46.9259 57.4324 46.6159 57.6324C46.3059 57.8324 46.1309 58.1424 46.0909 58.5624H44.3809C44.4109 58.0624 44.5309 57.6474 44.7409 57.3174C44.9509 56.9874 45.2159 56.7224 45.5359 56.5224C45.8659 56.3224 46.2359 56.1824 46.6459 56.1024C47.0559 56.0224 47.4759 55.9824 47.9059 55.9824C48.2859 55.9824 48.6609 56.0224 49.0309 56.1024C49.4009 56.1824 49.7309 56.3124 50.0209 56.4924C50.3209 56.6724 50.5609 56.9074 50.7409 57.1974C50.9209 57.4774 51.0109 57.8224 51.0109 58.2324V62.2224ZM49.3009 60.0624C49.0409 60.2324 48.7209 60.3374 48.3409 60.3774C47.9609 60.4074 47.5809 60.4574 47.2009 60.5274C47.0209 60.5574 46.8459 60.6024 46.6759 60.6624C46.5059 60.7124 46.3559 60.7874 46.2259 60.8874C46.0959 60.9774 45.9909 61.1024 45.9109 61.2624C45.8409 61.4124 45.8059 61.5974 45.8059 61.8174C45.8059 62.0074 45.8609 62.1674 45.9709 62.2974C46.0809 62.4274 46.2109 62.5324 46.3609 62.6124C46.5209 62.6824 46.6909 62.7324 46.8709 62.7624C47.0609 62.7924 47.2309 62.8074 47.3809 62.8074C47.5709 62.8074 47.7759 62.7824 47.9959 62.7324C48.2159 62.6824 48.4209 62.5974 48.6109 62.4774C48.8109 62.3574 48.9759 62.2074 49.1059 62.0274C49.2359 61.8374 49.3009 61.6074 49.3009 61.3374V60.0624ZM45.7009 54.9174V53.2974H47.4109V54.9174H45.7009ZM49.9909 53.2974V54.9174H48.2809V53.2974H49.9909ZM53.4509 56.1924H55.0709V57.3324L55.1009 57.3624C55.3609 56.9324 55.7009 56.5974 56.1209 56.3574C56.5409 56.1074 57.0059 55.9824 57.5159 55.9824C58.3659 55.9824 59.0359 56.2024 59.5259 56.6424C60.0159 57.0824 60.2609 57.7424 60.2609 58.6224V63.9474H58.5509V59.0724C58.5309 58.4624 58.4009 58.0224 58.1609 57.7524C57.9209 57.4724 57.5459 57.3324 57.0359 57.3324C56.7459 57.3324 56.4859 57.3874 56.2559 57.4974C56.0259 57.5974 55.8309 57.7424 55.6709 57.9324C55.5109 58.1124 55.3859 58.3274 55.2959 58.5774C55.2059 58.8274 55.1609 59.0924 55.1609 59.3724V63.9474H53.4509V56.1924ZM69.9692 63.9474H68.3492V62.8974H68.3192C68.0892 63.3474 67.7542 63.6724 67.3142 63.8724C66.8742 64.0624 66.4092 64.1574 65.9192 64.1574C65.3092 64.1574 64.7742 64.0524 64.3142 63.8424C63.8642 63.6224 63.4892 63.3274 63.1892 62.9574C62.8892 62.5874 62.6642 62.1524 62.5142 61.6524C62.3642 61.1424 62.2892 60.5974 62.2892 60.0174C62.2892 59.3174 62.3842 58.7124 62.5742 58.2024C62.7642 57.6924 63.0142 57.2724 63.3242 56.9424C63.6442 56.6124 64.0042 56.3724 64.4042 56.2224C64.8142 56.0624 65.2292 55.9824 65.6492 55.9824C65.8892 55.9824 66.1342 56.0074 66.3842 56.0574C66.6342 56.0974 66.8742 56.1674 67.1042 56.2674C67.3342 56.3674 67.5442 56.4974 67.7342 56.6574C67.9342 56.8074 68.0992 56.9874 68.2292 57.1974H68.2592V53.2374H69.9692V63.9474ZM63.9992 60.1524C63.9992 60.4824 64.0392 60.8074 64.1192 61.1274C64.2092 61.4474 64.3392 61.7324 64.5092 61.9824C64.6892 62.2324 64.9142 62.4324 65.1842 62.5824C65.4542 62.7324 65.7742 62.8074 66.1442 62.8074C66.5242 62.8074 66.8492 62.7274 67.1192 62.5674C67.3992 62.4074 67.6242 62.1974 67.7942 61.9374C67.9742 61.6774 68.1042 61.3874 68.1842 61.0674C68.2742 60.7374 68.3192 60.4024 68.3192 60.0624C68.3192 59.2024 68.1242 58.5324 67.7342 58.0524C67.3542 57.5724 66.8342 57.3324 66.1742 57.3324C65.7742 57.3324 65.4342 57.4174 65.1542 57.5874C64.8842 57.7474 64.6592 57.9624 64.4792 58.2324C64.3092 58.4924 64.1842 58.7924 64.1042 59.1324C64.0342 59.4624 63.9992 59.8024 63.9992 60.1524ZM78.9291 62.2224C78.9291 62.4324 78.9541 62.5824 79.0041 62.6724C79.0641 62.7624 79.1741 62.8074 79.3341 62.8074C79.3841 62.8074 79.4441 62.8074 79.5141 62.8074C79.5841 62.8074 79.6641 62.7974 79.7541 62.7774V63.9624C79.6941 63.9824 79.6141 64.0024 79.5141 64.0224C79.4241 64.0524 79.3291 64.0774 79.2291 64.0974C79.1291 64.1174 79.0291 64.1324 78.9291 64.1424C78.8291 64.1524 78.7441 64.1574 78.6741 64.1574C78.3241 64.1574 78.0341 64.0874 77.8041 63.9474C77.5741 63.8074 77.4241 63.5624 77.3541 63.2124C77.0141 63.5424 76.5941 63.7824 76.0941 63.9324C75.6041 64.0824 75.1291 64.1574 74.6691 64.1574C74.3191 64.1574 73.9841 64.1074 73.6641 64.0074C73.3441 63.9174 73.0591 63.7824 72.8091 63.6024C72.5691 63.4124 72.3741 63.1774 72.2241 62.8974C72.0841 62.6074 72.0141 62.2724 72.0141 61.8924C72.0141 61.4124 72.0991 61.0224 72.2691 60.7224C72.4491 60.4224 72.6791 60.1874 72.9591 60.0174C73.2491 59.8474 73.5691 59.7274 73.9191 59.6574C74.2791 59.5774 74.6391 59.5174 74.9991 59.4774C75.3091 59.4174 75.6041 59.3774 75.8841 59.3574C76.1641 59.3274 76.4091 59.2824 76.6191 59.2224C76.8391 59.1624 77.0091 59.0724 77.1291 58.9524C77.2591 58.8224 77.3241 58.6324 77.3241 58.3824C77.3241 58.1624 77.2691 57.9824 77.1591 57.8424C77.0591 57.7024 76.9291 57.5974 76.7691 57.5274C76.6191 57.4474 76.4491 57.3974 76.2591 57.3774C76.0691 57.3474 75.8891 57.3324 75.7191 57.3324C75.2391 57.3324 74.8441 57.4324 74.5341 57.6324C74.2241 57.8324 74.0491 58.1424 74.0091 58.5624H72.2991C72.3291 58.0624 72.4491 57.6474 72.6591 57.3174C72.8691 56.9874 73.1341 56.7224 73.4541 56.5224C73.7841 56.3224 74.1541 56.1824 74.5641 56.1024C74.9741 56.0224 75.3941 55.9824 75.8241 55.9824C76.2041 55.9824 76.5791 56.0224 76.9491 56.1024C77.3191 56.1824 77.6491 56.3124 77.9391 56.4924C78.2391 56.6724 78.4791 56.9074 78.6591 57.1974C78.8391 57.4774 78.9291 57.8224 78.9291 58.2324V62.2224ZM77.2191 60.0624C76.9591 60.2324 76.6391 60.3374 76.2591 60.3774C75.8791 60.4074 75.4991 60.4574 75.1191 60.5274C74.9391 60.5574 74.7641 60.6024 74.5941 60.6624C74.4241 60.7124 74.2741 60.7874 74.1441 60.8874C74.0141 60.9774 73.9091 61.1024 73.8291 61.2624C73.7591 61.4124 73.7241 61.5974 73.7241 61.8174C73.7241 62.0074 73.7791 62.1674 73.8891 62.2974C73.9991 62.4274 74.1291 62.5324 74.2791 62.6124C74.4391 62.6824 74.6091 62.7324 74.7891 62.7624C74.9791 62.7924 75.1491 62.8074 75.2991 62.8074C75.4891 62.8074 75.6941 62.7824 75.9141 62.7324C76.1341 62.6824 76.3391 62.5974 76.5291 62.4774C76.7291 62.3574 76.8941 62.2074 77.0241 62.0274C77.1541 61.8374 77.2191 61.6074 77.2191 61.3374V60.0624ZM81.369 56.1924H82.974V57.6924H83.004C83.054 57.4824 83.149 57.2774 83.289 57.0774C83.439 56.8774 83.614 56.6974 83.814 56.5374C84.024 56.3674 84.254 56.2324 84.504 56.1324C84.754 56.0324 85.009 55.9824 85.269 55.9824C85.469 55.9824 85.604 55.9874 85.674 55.9974C85.754 56.0074 85.834 56.0174 85.914 56.0274V57.6774C85.794 57.6574 85.669 57.6424 85.539 57.6324C85.419 57.6124 85.299 57.6024 85.179 57.6024C84.889 57.6024 84.614 57.6624 84.354 57.7824C84.104 57.8924 83.884 58.0624 83.694 58.2924C83.504 58.5124 83.354 58.7874 83.244 59.1174C83.134 59.4474 83.079 59.8274 83.079 60.2574V63.9474H81.369V56.1924ZM87.5062 56.1924H89.1262V57.3324L89.1562 57.3624C89.4162 56.9324 89.7562 56.5974 90.1762 56.3574C90.5962 56.1074 91.0612 55.9824 91.5712 55.9824C92.4212 55.9824 93.0912 56.2024 93.5812 56.6424C94.0712 57.0824 94.3162 57.7424 94.3162 58.6224V63.9474H92.6062V59.0724C92.5862 58.4624 92.4562 58.0224 92.2162 57.7524C91.9762 57.4724 91.6012 57.3324 91.0912 57.3324C90.8012 57.3324 90.5412 57.3874 90.3112 57.4974C90.0812 57.5974 89.8862 57.7424 89.7262 57.9324C89.5662 58.1124 89.4412 58.3274 89.3512 58.5774C89.2612 58.8274 89.2162 59.0924 89.2162 59.3724V63.9474H87.5062V56.1924ZM103.214 62.2224C103.214 62.4324 103.239 62.5824 103.289 62.6724C103.349 62.7624 103.459 62.8074 103.619 62.8074C103.669 62.8074 103.729 62.8074 103.799 62.8074C103.869 62.8074 103.949 62.7974 104.039 62.7774V63.9624C103.979 63.9824 103.899 64.0024 103.799 64.0224C103.709 64.0524 103.614 64.0774 103.514 64.0974C103.414 64.1174 103.314 64.1324 103.214 64.1424C103.114 64.1524 103.029 64.1574 102.959 64.1574C102.609 64.1574 102.319 64.0874 102.089 63.9474C101.859 63.8074 101.709 63.5624 101.639 63.2124C101.299 63.5424 100.879 63.7824 100.379 63.9324C99.8894 64.0824 99.4144 64.1574 98.9544 64.1574C98.6044 64.1574 98.2694 64.1074 97.9494 64.0074C97.6294 63.9174 97.3444 63.7824 97.0944 63.6024C96.8544 63.4124 96.6594 63.1774 96.5094 62.8974C96.3694 62.6074 96.2994 62.2724 96.2994 61.8924C96.2994 61.4124 96.3844 61.0224 96.5544 60.7224C96.7344 60.4224 96.9644 60.1874 97.2444 60.0174C97.5344 59.8474 97.8544 59.7274 98.2044 59.6574C98.5644 59.5774 98.9244 59.5174 99.2844 59.4774C99.5944 59.4174 99.8894 59.3774 100.169 59.3574C100.449 59.3274 100.694 59.2824 100.904 59.2224C101.124 59.1624 101.294 59.0724 101.414 58.9524C101.544 58.8224 101.609 58.6324 101.609 58.3824C101.609 58.1624 101.554 57.9824 101.444 57.8424C101.344 57.7024 101.214 57.5974 101.054 57.5274C100.904 57.4474 100.734 57.3974 100.544 57.3774C100.354 57.3474 100.174 57.3324 100.004 57.3324C99.5244 57.3324 99.1294 57.4324 98.8194 57.6324C98.5094 57.8324 98.3344 58.1424 98.2944 58.5624H96.5844C96.6144 58.0624 96.7344 57.6474 96.9444 57.3174C97.1544 56.9874 97.4194 56.7224 97.7394 56.5224C98.0694 56.3224 98.4394 56.1824 98.8494 56.1024C99.2594 56.0224 99.6794 55.9824 100.109 55.9824C100.489 55.9824 100.864 56.0224 101.234 56.1024C101.604 56.1824 101.934 56.3124 102.224 56.4924C102.524 56.6724 102.764 56.9074 102.944 57.1974C103.124 57.4774 103.214 57.8224 103.214 58.2324V62.2224ZM101.504 60.0624C101.244 60.2324 100.924 60.3374 100.544 60.3774C100.164 60.4074 99.7844 60.4574 99.4044 60.5274C99.2244 60.5574 99.0494 60.6024 98.8794 60.6624C98.7094 60.7124 98.5594 60.7874 98.4294 60.8874C98.2994 60.9774 98.1944 61.1024 98.1144 61.2624C98.0444 61.4124 98.0094 61.5974 98.0094 61.8174C98.0094 62.0074 98.0644 62.1674 98.1744 62.2974C98.2844 62.4274 98.4144 62.5324 98.5644 62.6124C98.7244 62.6824 98.8944 62.7324 99.0744 62.7624C99.2644 62.7924 99.4344 62.8074 99.5844 62.8074C99.7744 62.8074 99.9794 62.7824 100.199 62.7324C100.419 62.6824 100.624 62.5974 100.814 62.4774C101.014 62.3574 101.179 62.2074 101.309 62.0274C101.439 61.8374 101.504 61.6074 101.504 61.3374V60.0624ZM105.654 56.1924H107.274V57.2724H107.319C107.449 57.0824 107.589 56.9074 107.739 56.7474C107.889 56.5874 108.054 56.4524 108.234 56.3424C108.424 56.2324 108.639 56.1474 108.879 56.0874C109.119 56.0174 109.394 55.9824 109.704 55.9824C110.174 55.9824 110.609 56.0874 111.009 56.2974C111.419 56.5074 111.709 56.8324 111.879 57.2724C112.169 56.8724 112.504 56.5574 112.884 56.3274C113.264 56.0974 113.739 55.9824 114.309 55.9824C115.129 55.9824 115.764 56.1824 116.214 56.5824C116.674 56.9824 116.904 57.6524 116.904 58.5924V63.9474H115.194V59.4174C115.194 59.1074 115.184 58.8274 115.164 58.5774C115.144 58.3174 115.084 58.0974 114.984 57.9174C114.894 57.7274 114.754 57.5824 114.564 57.4824C114.374 57.3824 114.114 57.3324 113.784 57.3324C113.204 57.3324 112.784 57.5124 112.524 57.8724C112.264 58.2324 112.134 58.7424 112.134 59.4024V63.9474H110.424V58.9674C110.424 58.4274 110.324 58.0224 110.124 57.7524C109.934 57.4724 109.579 57.3324 109.059 57.3324C108.839 57.3324 108.624 57.3774 108.414 57.4674C108.214 57.5574 108.034 57.6874 107.874 57.8574C107.724 58.0274 107.599 58.2374 107.499 58.4874C107.409 58.7374 107.364 59.0224 107.364 59.3424V63.9474H105.654V56.1924ZM119.306 56.1924H120.926V57.3324L120.956 57.3624C121.216 56.9324 121.556 56.5974 121.976 56.3574C122.396 56.1074 122.861 55.9824 123.371 55.9824C124.221 55.9824 124.891 56.2024 125.381 56.6424C125.871 57.0824 126.116 57.7424 126.116 58.6224V63.9474H124.406V59.0724C124.386 58.4624 124.256 58.0224 124.016 57.7524C123.776 57.4724 123.401 57.3324 122.891 57.3324C122.601 57.3324 122.341 57.3874 122.111 57.4974C121.881 57.5974 121.686 57.7424 121.526 57.9324C121.366 58.1124 121.241 58.3274 121.151 58.5774C121.061 58.8274 121.016 59.0924 121.016 59.3724V63.9474H119.306V56.1924ZM128.654 61.9224H130.739V63.9474H128.654V61.9224ZM128.654 56.3574H130.739V58.3824H128.654V56.3574Z" fill="black"/>
<path d="M16.5594 73.2374H18.4344V82.3274H23.8794V83.9474H16.5594V73.2374ZM29.5377 84.1574C28.9177 84.1574 28.3627 84.0574 27.8727 83.8574C27.3927 83.6474 26.9827 83.3624 26.6427 83.0024C26.3127 82.6424 26.0577 82.2124 25.8777 81.7124C25.7077 81.2124 25.6227 80.6624 25.6227 80.0624C25.6227 79.4724 25.7077 78.9274 25.8777 78.4274C26.0577 77.9274 26.3127 77.4974 26.6427 77.1374C26.9827 76.7774 27.3927 76.4974 27.8727 76.2974C28.3627 76.0874 28.9177 75.9824 29.5377 75.9824C30.1577 75.9824 30.7077 76.0874 31.1877 76.2974C31.6777 76.4974 32.0877 76.7774 32.4177 77.1374C32.7577 77.4974 33.0127 77.9274 33.1827 78.4274C33.3627 78.9274 33.4527 79.4724 33.4527 80.0624C33.4527 80.6624 33.3627 81.2124 33.1827 81.7124C33.0127 82.2124 32.7577 82.6424 32.4177 83.0024C32.0877 83.3624 31.6777 83.6474 31.1877 83.8574C30.7077 84.0574 30.1577 84.1574 29.5377 84.1574ZM29.5377 82.8074C29.9177 82.8074 30.2477 82.7274 30.5277 82.5674C30.8077 82.4074 31.0377 82.1974 31.2177 81.9374C31.3977 81.6774 31.5277 81.3874 31.6077 81.0674C31.6977 80.7374 31.7427 80.4024 31.7427 80.0624C31.7427 79.7324 31.6977 79.4024 31.6077 79.0724C31.5277 78.7424 31.3977 78.4524 31.2177 78.2024C31.0377 77.9424 30.8077 77.7324 30.5277 77.5724C30.2477 77.4124 29.9177 77.3324 29.5377 77.3324C29.1577 77.3324 28.8277 77.4124 28.5477 77.5724C28.2677 77.7324 28.0377 77.9424 27.8577 78.2024C27.6777 78.4524 27.5427 78.7424 27.4527 79.0724C27.3727 79.4024 27.3327 79.7324 27.3327 80.0624C27.3327 80.4024 27.3727 80.7374 27.4527 81.0674C27.5427 81.3874 27.6777 81.6774 27.8577 81.9374C28.0377 82.1974 28.2677 82.4074 28.5477 82.5674C28.8277 82.7274 29.1577 82.8074 29.5377 82.8074ZM27.4227 74.9174V73.2974H29.1327V74.9174H27.4227ZM31.7127 73.2974V74.9174H30.0027V73.2974H31.7127ZM37.2143 81.4574C37.2643 81.9574 37.4543 82.3074 37.7843 82.5074C38.1143 82.7074 38.5093 82.8074 38.9693 82.8074C39.1293 82.8074 39.3093 82.7974 39.5093 82.7774C39.7193 82.7474 39.9143 82.6974 40.0943 82.6274C40.2743 82.5574 40.4193 82.4574 40.5293 82.3274C40.6493 82.1874 40.7043 82.0074 40.6943 81.7874C40.6843 81.5674 40.6043 81.3874 40.4543 81.2474C40.3043 81.1074 40.1093 80.9974 39.8693 80.9174C39.6393 80.8274 39.3743 80.7524 39.0743 80.6924C38.7743 80.6324 38.4693 80.5674 38.1593 80.4974C37.8393 80.4274 37.5293 80.3424 37.2293 80.2424C36.9393 80.1424 36.6743 80.0074 36.4343 79.8374C36.2043 79.6674 36.0193 79.4524 35.8793 79.1924C35.7393 78.9224 35.6693 78.5924 35.6693 78.2024C35.6693 77.7824 35.7693 77.4324 35.9693 77.1524C36.1793 76.8624 36.4393 76.6324 36.7493 76.4624C37.0693 76.2824 37.4193 76.1574 37.7993 76.0874C38.1893 76.0174 38.5593 75.9824 38.9093 75.9824C39.3093 75.9824 39.6893 76.0274 40.0493 76.1174C40.4193 76.1974 40.7493 76.3324 41.0393 76.5224C41.3393 76.7124 41.5843 76.9624 41.7743 77.2724C41.9743 77.5724 42.0993 77.9374 42.1493 78.3674H40.3643C40.2843 77.9574 40.0943 77.6824 39.7943 77.5424C39.5043 77.4024 39.1693 77.3324 38.7893 77.3324C38.6693 77.3324 38.5243 77.3424 38.3543 77.3624C38.1943 77.3824 38.0393 77.4224 37.8893 77.4824C37.7493 77.5324 37.6293 77.6124 37.5293 77.7224C37.4293 77.8224 37.3793 77.9574 37.3793 78.1274C37.3793 78.3374 37.4493 78.5074 37.5893 78.6374C37.7393 78.7674 37.9293 78.8774 38.1593 78.9674C38.3993 79.0474 38.6693 79.1174 38.9693 79.1774C39.2693 79.2374 39.5793 79.3024 39.8993 79.3724C40.2093 79.4424 40.5143 79.5274 40.8143 79.6274C41.1143 79.7274 41.3793 79.8624 41.6093 80.0324C41.8493 80.2024 42.0393 80.4174 42.1793 80.6774C42.3293 80.9374 42.4043 81.2574 42.4043 81.6374C42.4043 82.0974 42.2993 82.4874 42.0893 82.8074C41.8793 83.1274 41.6043 83.3874 41.2643 83.5874C40.9343 83.7874 40.5643 83.9324 40.1543 84.0224C39.7443 84.1124 39.3393 84.1574 38.9393 84.1574C38.4493 84.1574 37.9943 84.1024 37.5743 83.9924C37.1643 83.8824 36.8043 83.7174 36.4943 83.4974C36.1943 83.2674 35.9543 82.9874 35.7743 82.6574C35.6043 82.3174 35.5143 81.9174 35.5043 81.4574H37.2143ZM50.0776 79.3874C50.0576 79.1174 49.9976 78.8574 49.8976 78.6074C49.8076 78.3574 49.6776 78.1424 49.5076 77.9624C49.3476 77.7724 49.1476 77.6224 48.9076 77.5124C48.6776 77.3924 48.4176 77.3324 48.1276 77.3324C47.8276 77.3324 47.5526 77.3874 47.3026 77.4974C47.0626 77.5974 46.8526 77.7424 46.6726 77.9324C46.5026 78.1124 46.3626 78.3274 46.2526 78.5774C46.1526 78.8274 46.0976 79.0974 46.0876 79.3874H50.0776ZM46.0876 80.5124C46.0876 80.8124 46.1276 81.1024 46.2076 81.3824C46.2976 81.6624 46.4276 81.9074 46.5976 82.1174C46.7676 82.3274 46.9826 82.4974 47.2426 82.6274C47.5026 82.7474 47.8126 82.8074 48.1726 82.8074C48.6726 82.8074 49.0726 82.7024 49.3726 82.4924C49.6826 82.2724 49.9126 81.9474 50.0626 81.5174H51.6826C51.5926 81.9374 51.4376 82.3124 51.2176 82.6424C50.9976 82.9724 50.7326 83.2524 50.4226 83.4824C50.1126 83.7024 49.7626 83.8674 49.3726 83.9774C48.9926 84.0974 48.5926 84.1574 48.1726 84.1574C47.5626 84.1574 47.0226 84.0574 46.5526 83.8574C46.0826 83.6574 45.6826 83.3774 45.3526 83.0174C45.0326 82.6574 44.7876 82.2274 44.6176 81.7274C44.4576 81.2274 44.3776 80.6774 44.3776 80.0774C44.3776 79.5274 44.4626 79.0074 44.6326 78.5174C44.8126 78.0174 45.0626 77.5824 45.3826 77.2124C45.7126 76.8324 46.1076 76.5324 46.5676 76.3124C47.0276 76.0924 47.5476 75.9824 48.1276 75.9824C48.7376 75.9824 49.2826 76.1124 49.7626 76.3724C50.2526 76.6224 50.6576 76.9574 50.9776 77.3774C51.2976 77.7974 51.5276 78.2824 51.6676 78.8324C51.8176 79.3724 51.8576 79.9324 51.7876 80.5124H46.0876ZM54.1376 76.1924H55.7576V77.3324L55.7876 77.3624C56.0476 76.9324 56.3876 76.5974 56.8076 76.3574C57.2276 76.1074 57.6926 75.9824 58.2026 75.9824C59.0526 75.9824 59.7226 76.2024 60.2126 76.6424C60.7026 77.0824 60.9476 77.7424 60.9476 78.6224V83.9474H59.2376V79.0724C59.2176 78.4624 59.0876 78.0224 58.8476 77.7524C58.6076 77.4724 58.2326 77.3324 57.7226 77.3324C57.4326 77.3324 57.1726 77.3874 56.9426 77.4974C56.7126 77.5974 56.5176 77.7424 56.3576 77.9324C56.1976 78.1124 56.0726 78.3274 55.9826 78.5774C55.8926 78.8274 55.8476 79.0924 55.8476 79.3724V83.9474H54.1376V76.1924ZM67.3559 84.1574C66.7359 84.1574 66.1809 84.0574 65.6909 83.8574C65.2109 83.6474 64.8009 83.3624 64.4609 83.0024C64.1309 82.6424 63.8759 82.2124 63.6959 81.7124C63.5259 81.2124 63.4409 80.6624 63.4409 80.0624C63.4409 79.4724 63.5259 78.9274 63.6959 78.4274C63.8759 77.9274 64.1309 77.4974 64.4609 77.1374C64.8009 76.7774 65.2109 76.4974 65.6909 76.2974C66.1809 76.0874 66.7359 75.9824 67.3559 75.9824C67.9759 75.9824 68.5259 76.0874 69.0059 76.2974C69.4959 76.4974 69.9059 76.7774 70.2359 77.1374C70.5759 77.4974 70.8309 77.9274 71.0009 78.4274C71.1809 78.9274 71.2709 79.4724 71.2709 80.0624C71.2709 80.6624 71.1809 81.2124 71.0009 81.7124C70.8309 82.2124 70.5759 82.6424 70.2359 83.0024C69.9059 83.3624 69.4959 83.6474 69.0059 83.8574C68.5259 84.0574 67.9759 84.1574 67.3559 84.1574ZM67.3559 82.8074C67.7359 82.8074 68.0659 82.7274 68.3459 82.5674C68.6259 82.4074 68.8559 82.1974 69.0359 81.9374C69.2159 81.6774 69.3459 81.3874 69.4259 81.0674C69.5159 80.7374 69.5609 80.4024 69.5609 80.0624C69.5609 79.7324 69.5159 79.4024 69.4259 79.0724C69.3459 78.7424 69.2159 78.4524 69.0359 78.2024C68.8559 77.9424 68.6259 77.7324 68.3459 77.5724C68.0659 77.4124 67.7359 77.3324 67.3559 77.3324C66.9759 77.3324 66.6459 77.4124 66.3659 77.5724C66.0859 77.7324 65.8559 77.9424 65.6759 78.2024C65.4959 78.4524 65.3609 78.7424 65.2709 79.0724C65.1909 79.4024 65.1509 79.7324 65.1509 80.0624C65.1509 80.4024 65.1909 80.7374 65.2709 81.0674C65.3609 81.3874 65.4959 81.6774 65.6759 81.9374C65.8559 82.1974 66.0859 82.4074 66.3659 82.5674C66.6459 82.7274 66.9759 82.8074 67.3559 82.8074ZM73.7425 76.1924H75.3475V77.6924H75.3775C75.4275 77.4824 75.5225 77.2774 75.6625 77.0774C75.8125 76.8774 75.9875 76.6974 76.1875 76.5374C76.3975 76.3674 76.6275 76.2324 76.8775 76.1324C77.1275 76.0324 77.3825 75.9824 77.6425 75.9824C77.8425 75.9824 77.9775 75.9874 78.0475 75.9974C78.1275 76.0074 78.2075 76.0174 78.2875 76.0274V77.6774C78.1675 77.6574 78.0425 77.6424 77.9125 77.6324C77.7925 77.6124 77.6725 77.6024 77.5525 77.6024C77.2625 77.6024 76.9875 77.6624 76.7275 77.7824C76.4775 77.8924 76.2575 78.0624 76.0675 78.2924C75.8775 78.5124 75.7275 78.7874 75.6175 79.1174C75.5075 79.4474 75.4525 79.8274 75.4525 80.2574V83.9474H73.7425V76.1924ZM87.1072 83.9474H85.4872V82.8974H85.4572C85.2272 83.3474 84.8922 83.6724 84.4522 83.8724C84.0122 84.0624 83.5472 84.1574 83.0572 84.1574C82.4472 84.1574 81.9122 84.0524 81.4522 83.8424C81.0022 83.6224 80.6272 83.3274 80.3272 82.9574C80.0272 82.5874 79.8022 82.1524 79.6522 81.6524C79.5022 81.1424 79.4272 80.5974 79.4272 80.0174C79.4272 79.3174 79.5222 78.7124 79.7122 78.2024C79.9022 77.6924 80.1522 77.2724 80.4622 76.9424C80.7822 76.6124 81.1422 76.3724 81.5422 76.2224C81.9522 76.0624 82.3672 75.9824 82.7872 75.9824C83.0272 75.9824 83.2722 76.0074 83.5222 76.0574C83.7722 76.0974 84.0122 76.1674 84.2422 76.2674C84.4722 76.3674 84.6822 76.4974 84.8722 76.6574C85.0722 76.8074 85.2372 76.9874 85.3672 77.1974H85.3972V73.2374H87.1072V83.9474ZM81.1372 80.1524C81.1372 80.4824 81.1772 80.8074 81.2572 81.1274C81.3472 81.4474 81.4772 81.7324 81.6472 81.9824C81.8272 82.2324 82.0522 82.4324 82.3222 82.5824C82.5922 82.7324 82.9122 82.8074 83.2822 82.8074C83.6622 82.8074 83.9872 82.7274 84.2572 82.5674C84.5372 82.4074 84.7622 82.1974 84.9322 81.9374C85.1122 81.6774 85.2422 81.3874 85.3222 81.0674C85.4122 80.7374 85.4572 80.4024 85.4572 80.0624C85.4572 79.2024 85.2622 78.5324 84.8722 78.0524C84.4922 77.5724 83.9722 77.3324 83.3122 77.3324C82.9122 77.3324 82.5722 77.4174 82.2922 77.5874C82.0222 77.7474 81.7972 77.9624 81.6172 78.2324C81.4472 78.4924 81.3222 78.7924 81.2422 79.1324C81.1722 79.4624 81.1372 79.8024 81.1372 80.1524ZM90.1572 81.9224H92.2422V83.9474H90.1572V81.9224ZM90.1572 76.3574H92.2422V78.3824H90.1572V76.3574Z" fill="black"/>
</g>
<defs>
<clipPath id="clip0_116_2">
<rect width="211.619" height="105.018" fill="white"/>
</clipPath>
</defs>
</svg>
