<svg width="212" height="106" viewBox="0 0 212 106" fill="none" xmlns="http://www.w3.org/2000/svg">
<g clip-path="url(#clip0_115_2)">
<mask id="mask0_115_2" style="mask-type:luminance" maskUnits="userSpaceOnUse" x="0" y="0" width="212" height="106">
<path d="M0 0H211.619V105.018H0V0Z" fill="white"/>
</mask>
<g mask="url(#mask0_115_2)">
<path fill-rule="evenodd" clip-rule="evenodd" d="M3.57227 2.41467H208.045V102.604H3.57227V2.41467Z" stroke="black" stroke-miterlimit="10" stroke-linejoin="round"/>
</g>
<path d="M132.614 81.2954C132.494 80.6474 132.278 80.1554 131.966 79.8194C131.666 79.4834 131.204 79.3154 130.58 79.3154C130.172 79.3154 129.83 79.3874 129.554 79.5314C129.29 79.6634 129.074 79.8314 128.906 80.0354C128.75 80.2394 128.636 80.4554 128.564 80.6834C128.504 80.9114 128.468 81.1154 128.456 81.2954H132.614ZM128.456 82.9154C128.492 83.7314 128.702 84.3314 129.086 84.7154C129.47 85.0874 130.022 85.2734 130.742 85.2734C131.258 85.2734 131.702 85.1474 132.074 84.8954C132.446 84.6314 132.674 84.3554 132.758 84.0674H135.008C134.648 85.1714 134.096 85.9694 133.352 86.4614C132.608 86.9534 131.708 87.1994 130.652 87.1994C129.92 87.1994 129.26 87.0794 128.672 86.8394C128.084 86.5994 127.586 86.2634 127.178 85.8314C126.77 85.3994 126.452 84.8834 126.224 84.2834C126.008 83.6834 125.9 83.0234 125.9 82.3034C125.9 81.6074 126.014 80.9594 126.242 80.3594C126.47 79.7594 126.794 79.2434 127.214 78.8114C127.634 78.3674 128.132 78.0194 128.708 77.7674C129.296 77.5154 129.944 77.3894 130.652 77.3894C131.444 77.3894 132.134 77.5454 132.722 77.8574C133.31 78.1574 133.79 78.5654 134.162 79.0814C134.546 79.5974 134.822 80.1854 134.99 80.8454C135.158 81.5054 135.218 82.1954 135.17 82.9154H128.456ZM141.186 77.6414H143.058V79.3514H141.186V83.9594C141.186 84.3914 141.258 84.6794 141.402 84.8234C141.546 84.9674 141.834 85.0394 142.266 85.0394C142.554 85.0394 142.818 85.0154 143.058 84.9674V86.9654C142.842 87.0014 142.602 87.0254 142.338 87.0374C142.074 87.0494 141.816 87.0554 141.564 87.0554C141.168 87.0554 140.79 87.0254 140.43 86.9654C140.082 86.9174 139.77 86.8154 139.494 86.6594C139.23 86.4914 139.02 86.2634 138.864 85.9754C138.708 85.6874 138.63 85.3094 138.63 84.8414V79.3514H137.082V77.6414H138.63V74.8514H141.186V77.6414ZM151.798 81.2954C151.678 80.6474 151.462 80.1554 151.15 79.8194C150.85 79.4834 150.388 79.3154 149.764 79.3154C149.356 79.3154 149.014 79.3874 148.738 79.5314C148.474 79.6634 148.258 79.8314 148.09 80.0354C147.934 80.2394 147.82 80.4554 147.748 80.6834C147.688 80.9114 147.652 81.1154 147.64 81.2954H151.798ZM147.64 82.9154C147.676 83.7314 147.886 84.3314 148.27 84.7154C148.654 85.0874 149.206 85.2734 149.926 85.2734C150.442 85.2734 150.886 85.1474 151.258 84.8954C151.63 84.6314 151.858 84.3554 151.942 84.0674H154.192C153.832 85.1714 153.28 85.9694 152.536 86.4614C151.792 86.9534 150.892 87.1994 149.836 87.1994C149.104 87.1994 148.444 87.0794 147.856 86.8394C147.268 86.5994 146.77 86.2634 146.362 85.8314C145.954 85.3994 145.636 84.8834 145.408 84.2834C145.192 83.6834 145.084 83.0234 145.084 82.3034C145.084 81.6074 145.198 80.9594 145.426 80.3594C145.654 79.7594 145.978 79.2434 146.398 78.8114C146.818 78.3674 147.316 78.0194 147.892 77.7674C148.48 77.5154 149.128 77.3894 149.836 77.3894C150.628 77.3894 151.318 77.5454 151.906 77.8574C152.494 78.1574 152.974 78.5654 153.346 79.0814C153.73 79.5974 154.006 80.1854 154.174 80.8454C154.342 81.5054 154.402 82.1954 154.354 82.9154H147.64ZM157.13 77.6414H159.56V79.3694H159.596C159.716 79.0814 159.878 78.8174 160.082 78.5774C160.286 78.3254 160.52 78.1154 160.784 77.9474C161.048 77.7674 161.33 77.6294 161.63 77.5334C161.942 77.4374 162.254 77.3894 162.566 77.3894C162.758 77.3894 162.944 77.4194 163.124 77.4794V79.8554C163.004 79.8314 162.86 79.8134 162.692 79.8014C162.524 79.7774 162.362 79.7654 162.206 79.7654C161.738 79.7654 161.342 79.8434 161.018 79.9994C160.694 80.1554 160.43 80.3714 160.226 80.6474C160.034 80.9114 159.896 81.2294 159.812 81.6014C159.728 81.9614 159.686 82.3454 159.686 82.7534V86.9474H157.13V77.6414ZM165.703 77.6414H168.133V78.9374H168.187C168.511 78.4094 168.931 78.0194 169.447 77.7674C169.963 77.5154 170.491 77.3894 171.031 77.3894C171.715 77.3894 172.273 77.4854 172.705 77.6774C173.149 77.8574 173.497 78.1154 173.749 78.4514C174.001 78.7754 174.175 79.1774 174.271 79.6574C174.379 80.1254 174.433 80.6474 174.433 81.2234V86.9474H171.877V81.6914C171.877 80.9234 171.751 80.3534 171.499 79.9814C171.259 79.5974 170.839 79.4054 170.239 79.4054C169.543 79.4054 169.039 79.6154 168.727 80.0354C168.415 80.4434 168.259 81.1214 168.259 82.0694V86.9474H165.703V77.6414ZM177.525 80.5034C177.561 79.9034 177.711 79.4054 177.975 79.0094C178.239 78.6134 178.575 78.2954 178.983 78.0554C179.391 77.8154 179.847 77.6474 180.351 77.5514C180.855 77.4434 181.371 77.3894 181.899 77.3894C182.367 77.3894 182.841 77.4254 183.321 77.4974C183.801 77.5574 184.239 77.6834 184.635 77.8754C185.031 78.0674 185.355 78.3374 185.607 78.6854C185.859 79.0334 185.985 79.4834 185.985 80.0354V84.8774C185.985 85.2974 186.009 85.6994 186.057 86.0834C186.105 86.4674 186.189 86.7554 186.309 86.9474H183.717C183.669 86.8034 183.627 86.6594 183.591 86.5154C183.567 86.3594 183.549 86.2034 183.537 86.0474C183.129 86.4674 182.649 86.7674 182.097 86.9474C181.545 87.1154 180.981 87.1994 180.405 87.1994C179.961 87.1994 179.547 87.1394 179.163 87.0194C178.779 86.9114 178.443 86.7434 178.155 86.5154C177.867 86.2874 177.639 85.9994 177.471 85.6514C177.315 85.3034 177.237 84.8894 177.237 84.4094C177.237 83.8814 177.327 83.4494 177.507 83.1134C177.687 82.7654 177.927 82.4894 178.227 82.2854C178.527 82.0814 178.863 81.9314 179.235 81.8354C179.619 81.7274 180.009 81.6434 180.405 81.5834C180.801 81.5234 181.179 81.4754 181.539 81.4394C181.899 81.4034 182.217 81.3494 182.493 81.2774C182.781 81.2054 183.009 81.1034 183.177 80.9714C183.345 80.8274 183.429 80.6234 183.429 80.3594C183.429 80.0834 183.381 79.8674 183.285 79.7114C183.201 79.5434 183.081 79.4174 182.925 79.3334C182.781 79.2374 182.607 79.1774 182.403 79.1534C182.211 79.1174 182.001 79.0994 181.773 79.0994C181.281 79.0994 180.885 79.2074 180.585 79.4234C180.297 79.6394 180.129 79.9994 180.081 80.5034H177.525ZM183.429 82.3934C183.321 82.4894 183.183 82.5674 183.015 82.6274C182.859 82.6754 182.685 82.7174 182.493 82.7534C182.313 82.7894 182.115 82.8194 181.899 82.8434C181.695 82.8674 181.497 82.8974 181.305 82.9334C181.101 82.9694 180.909 83.0174 180.729 83.0774C180.549 83.1374 180.387 83.2214 180.243 83.3294C180.111 83.4254 180.003 83.5574 179.919 83.7254C179.835 83.8814 179.793 84.0734 179.793 84.3014C179.793 84.5414 179.835 84.7394 179.919 84.8954C180.003 85.0394 180.117 85.1594 180.261 85.2554C180.405 85.3394 180.573 85.3994 180.765 85.4354C180.957 85.4714 181.155 85.4894 181.359 85.4894C181.863 85.4894 182.253 85.4054 182.529 85.2374C182.805 85.0694 183.009 84.8714 183.141 84.6434C183.273 84.4034 183.351 84.1634 183.375 83.9234C183.411 83.6834 183.429 83.4914 183.429 83.3474V82.3934Z" fill="black"/>
<path d="M126.67 58.5034C126.706 57.9034 126.856 57.4054 127.12 57.0094C127.384 56.6134 127.72 56.2954 128.128 56.0554C128.536 55.8154 128.992 55.6474 129.496 55.5514C130 55.4434 130.516 55.3894 131.044 55.3894C131.512 55.3894 131.986 55.4254 132.466 55.4974C132.946 55.5574 133.384 55.6834 133.78 55.8754C134.176 56.0674 134.5 56.3374 134.752 56.6854C135.004 57.0334 135.13 57.4834 135.13 58.0354V62.8774C135.13 63.2974 135.154 63.6994 135.202 64.0834C135.25 64.4674 135.334 64.7554 135.454 64.9474H132.862C132.814 64.8034 132.772 64.6594 132.736 64.5154C132.712 64.3594 132.694 64.2034 132.682 64.0474C132.274 64.4674 131.794 64.7674 131.242 64.9474C130.69 65.1154 130.126 65.1994 129.55 65.1994C129.106 65.1994 128.692 65.1394 128.308 65.0194C127.924 64.9114 127.588 64.7434 127.3 64.5154C127.012 64.2874 126.784 63.9994 126.616 63.6514C126.46 63.3034 126.382 62.8894 126.382 62.4094C126.382 61.8814 126.472 61.4494 126.652 61.1134C126.832 60.7654 127.072 60.4894 127.372 60.2854C127.672 60.0814 128.008 59.9314 128.38 59.8354C128.764 59.7274 129.154 59.6434 129.55 59.5834C129.946 59.5234 130.324 59.4754 130.684 59.4394C131.044 59.4034 131.362 59.3494 131.638 59.2774C131.926 59.2054 132.154 59.1034 132.322 58.9714C132.49 58.8274 132.574 58.6234 132.574 58.3594C132.574 58.0834 132.526 57.8674 132.43 57.7114C132.346 57.5434 132.226 57.4174 132.07 57.3334C131.926 57.2374 131.752 57.1774 131.548 57.1534C131.356 57.1174 131.146 57.0994 130.918 57.0994C130.426 57.0994 130.03 57.2074 129.73 57.4234C129.442 57.6394 129.274 57.9994 129.226 58.5034H126.67ZM132.574 60.3934C132.466 60.4894 132.328 60.5674 132.16 60.6274C132.004 60.6754 131.83 60.7174 131.638 60.7534C131.458 60.7894 131.26 60.8194 131.044 60.8434C130.84 60.8674 130.642 60.8974 130.45 60.9334C130.246 60.9694 130.054 61.0174 129.874 61.0774C129.694 61.1374 129.532 61.2214 129.388 61.3294C129.256 61.4254 129.148 61.5574 129.064 61.7254C128.98 61.8814 128.938 62.0734 128.938 62.3014C128.938 62.5414 128.98 62.7394 129.064 62.8954C129.148 63.0394 129.262 63.1594 129.406 63.2554C129.55 63.3394 129.718 63.3994 129.91 63.4354C130.102 63.4714 130.3 63.4894 130.504 63.4894C131.008 63.4894 131.398 63.4054 131.674 63.2374C131.95 63.0694 132.154 62.8714 132.286 62.6434C132.418 62.4034 132.496 62.1634 132.52 61.9234C132.556 61.6834 132.574 61.4914 132.574 61.3474V60.3934ZM145.88 60.2674C145.88 59.8954 145.844 59.5294 145.772 59.1694C145.7 58.8094 145.574 58.4974 145.394 58.2334C145.226 57.9574 144.998 57.7354 144.71 57.5674C144.434 57.3994 144.092 57.3154 143.684 57.3154C143.264 57.3154 142.91 57.3994 142.622 57.5674C142.334 57.7354 142.1 57.9574 141.92 58.2334C141.752 58.5094 141.626 58.8274 141.542 59.1874C141.47 59.5354 141.434 59.9014 141.434 60.2854C141.434 60.6454 141.476 61.0054 141.56 61.3654C141.644 61.7254 141.776 62.0494 141.956 62.3374C142.148 62.6134 142.382 62.8414 142.658 63.0214C142.946 63.1894 143.288 63.2734 143.684 63.2734C144.104 63.2734 144.452 63.1894 144.728 63.0214C145.016 62.8534 145.244 62.6314 145.412 62.3554C145.58 62.0674 145.7 61.7434 145.772 61.3834C145.844 61.0234 145.88 60.6514 145.88 60.2674ZM145.916 63.7594H145.88C145.58 64.2634 145.184 64.6294 144.692 64.8574C144.2 65.0854 143.654 65.1994 143.054 65.1994C142.346 65.1994 141.728 65.0614 141.2 64.7854C140.684 64.5094 140.252 64.1434 139.904 63.6874C139.568 63.2194 139.31 62.6854 139.13 62.0854C138.962 61.4854 138.878 60.8614 138.878 60.2134C138.878 59.5894 138.962 58.9894 139.13 58.4134C139.31 57.8254 139.568 57.3094 139.904 56.8654C140.252 56.4214 140.684 56.0674 141.2 55.8034C141.716 55.5274 142.316 55.3894 143 55.3894C143.552 55.3894 144.074 55.5094 144.566 55.7494C145.07 55.9774 145.466 56.3194 145.754 56.7754H145.79V52.0954H148.346V64.9474H145.916V63.7594ZM152.51 55.6414H154.922V56.9014H154.958C155.294 56.4214 155.696 56.0494 156.164 55.7854C156.644 55.5214 157.19 55.3894 157.802 55.3894C158.39 55.3894 158.924 55.5094 159.404 55.7494C159.896 55.9774 160.268 56.3734 160.52 56.9374C160.796 56.5294 161.168 56.1694 161.636 55.8574C162.116 55.5454 162.68 55.3894 163.328 55.3894C163.82 55.3894 164.276 55.4494 164.696 55.5694C165.116 55.6894 165.476 55.8814 165.776 56.1454C166.076 56.4094 166.31 56.7574 166.478 57.1894C166.646 57.6094 166.73 58.1194 166.73 58.7194V64.9474H164.174V59.6734C164.174 59.3614 164.162 59.0674 164.138 58.7914C164.114 58.5154 164.048 58.2754 163.94 58.0714C163.832 57.8674 163.67 57.7054 163.454 57.5854C163.25 57.4654 162.968 57.4054 162.608 57.4054C162.248 57.4054 161.954 57.4774 161.726 57.6214C161.51 57.7534 161.336 57.9334 161.204 58.1614C161.084 58.3774 161 58.6294 160.952 58.9174C160.916 59.1934 160.898 59.4754 160.898 59.7634V64.9474H158.342V59.7274C158.342 59.4634 158.336 59.1934 158.324 58.9174C158.312 58.6414 158.258 58.3894 158.162 58.1614C158.078 57.9334 157.928 57.7534 157.712 57.6214C157.508 57.4774 157.202 57.4054 156.794 57.4054C156.662 57.4054 156.5 57.4354 156.308 57.4954C156.116 57.5434 155.924 57.6454 155.732 57.8014C155.552 57.9454 155.396 58.1614 155.264 58.4494C155.132 58.7254 155.066 59.0914 155.066 59.5474V64.9474H152.51V55.6414ZM173.538 54.2014H170.982V52.0954H173.538V54.2014ZM170.982 55.6414H173.538V64.9474H170.982V55.6414ZM177.711 55.6414H180.141V56.9374H180.195C180.519 56.4094 180.939 56.0194 181.455 55.7674C181.971 55.5154 182.499 55.3894 183.039 55.3894C183.723 55.3894 184.281 55.4854 184.713 55.6774C185.157 55.8574 185.505 56.1154 185.757 56.4514C186.009 56.7754 186.183 57.1774 186.279 57.6574C186.387 58.1254 186.441 58.6474 186.441 59.2234V64.9474H183.885V59.6914C183.885 58.9234 183.759 58.3534 183.507 57.9814C183.267 57.5974 182.847 57.4054 182.247 57.4054C181.551 57.4054 181.047 57.6154 180.735 58.0354C180.423 58.4434 180.267 59.1214 180.267 60.0694V64.9474H177.711V55.6414Z" fill="black"/>
<path d="M15.5794 17.4821H27.1394V19.6421H22.5994V31.7621H20.0994V19.6421H15.5794V17.4821ZM35.1483 25.6821C35.1217 25.3221 35.0417 24.9754 34.9083 24.6421C34.7883 24.3088 34.615 24.0221 34.3883 23.7821C34.175 23.5288 33.9083 23.3288 33.5883 23.1821C33.2817 23.0221 32.935 22.9421 32.5483 22.9421C32.1483 22.9421 31.7817 23.0154 31.4483 23.1621C31.1283 23.2954 30.8483 23.4888 30.6083 23.7421C30.3817 23.9821 30.195 24.2688 30.0483 24.6021C29.915 24.9354 29.8417 25.2954 29.8283 25.6821H35.1483ZM29.8283 27.1821C29.8283 27.5821 29.8817 27.9688 29.9883 28.3421C30.1083 28.7154 30.2817 29.0421 30.5083 29.3221C30.735 29.6021 31.0217 29.8288 31.3683 30.0021C31.715 30.1621 32.1283 30.2421 32.6083 30.2421C33.275 30.2421 33.8083 30.1021 34.2083 29.8221C34.6217 29.5288 34.9283 29.0954 35.1283 28.5221H37.2883C37.1683 29.0821 36.9617 29.5821 36.6683 30.0221C36.375 30.4621 36.0217 30.8354 35.6083 31.1421C35.195 31.4354 34.7283 31.6554 34.2083 31.8021C33.7017 31.9621 33.1683 32.0421 32.6083 32.0421C31.795 32.0421 31.075 31.9088 30.4483 31.6421C29.8217 31.3754 29.2883 31.0021 28.8483 30.5221C28.4217 30.0421 28.095 29.4688 27.8683 28.8021C27.655 28.1354 27.5483 27.4021 27.5483 26.6021C27.5483 25.8688 27.6617 25.1754 27.8883 24.5221C28.1283 23.8554 28.4617 23.2754 28.8883 22.7821C29.3283 22.2754 29.855 21.8754 30.4683 21.5821C31.0817 21.2888 31.775 21.1421 32.5483 21.1421C33.3617 21.1421 34.0883 21.3154 34.7283 21.6621C35.3817 21.9954 35.9217 22.4421 36.3483 23.0021C36.775 23.5621 37.0817 24.2088 37.2683 24.9421C37.4683 25.6621 37.5217 26.4088 37.4283 27.1821H29.8283ZM42.6816 28.4421C42.7483 29.1088 43.0016 29.5754 43.4416 29.8421C43.8816 30.1088 44.4083 30.2421 45.0216 30.2421C45.235 30.2421 45.475 30.2288 45.7416 30.2021C46.0216 30.1621 46.2816 30.0954 46.5216 30.0021C46.7616 29.9088 46.955 29.7754 47.1016 29.6021C47.2616 29.4154 47.335 29.1754 47.3216 28.8821C47.3083 28.5888 47.2016 28.3488 47.0016 28.1621C46.8016 27.9754 46.5416 27.8288 46.2216 27.7221C45.915 27.6021 45.5616 27.5021 45.1616 27.4221C44.7616 27.3421 44.355 27.2554 43.9416 27.1621C43.515 27.0688 43.1016 26.9554 42.7016 26.8221C42.315 26.6888 41.9616 26.5088 41.6416 26.2821C41.335 26.0554 41.0883 25.7688 40.9016 25.4221C40.715 25.0621 40.6216 24.6221 40.6216 24.1021C40.6216 23.5421 40.755 23.0754 41.0216 22.7021C41.3016 22.3154 41.6483 22.0088 42.0616 21.7821C42.4883 21.5421 42.955 21.3754 43.4616 21.2821C43.9816 21.1888 44.475 21.1421 44.9416 21.1421C45.475 21.1421 45.9816 21.2021 46.4616 21.3221C46.955 21.4288 47.395 21.6088 47.7816 21.8621C48.1816 22.1154 48.5083 22.4488 48.7616 22.8621C49.0283 23.2621 49.195 23.7488 49.2616 24.3221H46.8816C46.775 23.7754 46.5216 23.4088 46.1216 23.2221C45.735 23.0354 45.2883 22.9421 44.7816 22.9421C44.6216 22.9421 44.4283 22.9554 44.2016 22.9821C43.9883 23.0088 43.7816 23.0621 43.5816 23.1421C43.395 23.2088 43.235 23.3154 43.1016 23.4621C42.9683 23.5954 42.9016 23.7754 42.9016 24.0021C42.9016 24.2821 42.995 24.5088 43.1816 24.6821C43.3816 24.8554 43.635 25.0021 43.9416 25.1221C44.2616 25.2288 44.6216 25.3221 45.0216 25.4021C45.4216 25.4821 45.835 25.5688 46.2616 25.6621C46.675 25.7554 47.0816 25.8688 47.4816 26.0021C47.8816 26.1354 48.235 26.3154 48.5416 26.5421C48.8616 26.7688 49.115 27.0554 49.3016 27.4021C49.5016 27.7488 49.6016 28.1754 49.6016 28.6821C49.6016 29.2954 49.4616 29.8154 49.1816 30.2421C48.9016 30.6688 48.535 31.0154 48.0816 31.2821C47.6416 31.5488 47.1483 31.7421 46.6016 31.8621C46.055 31.9821 45.515 32.0421 44.9816 32.0421C44.3283 32.0421 43.7216 31.9688 43.1616 31.8221C42.615 31.6754 42.135 31.4554 41.7216 31.1621C41.3216 30.8554 41.0016 30.4821 40.7616 30.0421C40.535 29.5888 40.415 29.0554 40.4016 28.4421H42.6816ZM52.0927 21.4221H53.8127V18.3221H56.0927V21.4221H58.1527V23.1221H56.0927V28.6421C56.0927 28.8821 56.0994 29.0888 56.1127 29.2621C56.1394 29.4354 56.186 29.5821 56.2527 29.7021C56.3327 29.8221 56.4461 29.9154 56.5927 29.9821C56.7394 30.0354 56.9394 30.0621 57.1927 30.0621C57.3527 30.0621 57.5127 30.0621 57.6727 30.0621C57.8327 30.0488 57.9927 30.0221 58.1527 29.9821V31.7421C57.8994 31.7688 57.6527 31.7954 57.4127 31.8221C57.1727 31.8488 56.926 31.8621 56.6727 31.8621C56.0727 31.8621 55.586 31.8088 55.2127 31.7021C54.8527 31.5821 54.566 31.4154 54.3527 31.2021C54.1527 30.9754 54.0127 30.6954 53.9327 30.3621C53.866 30.0288 53.826 29.6488 53.8127 29.2221V23.1221H52.0927V21.4221ZM75.9393 24.8821C75.8459 24.2421 75.5859 23.7621 75.1593 23.4421C74.7459 23.1088 74.2193 22.9421 73.5793 22.9421C73.2859 22.9421 72.9726 22.9954 72.6393 23.1021C72.3059 23.1954 71.9993 23.3821 71.7193 23.6621C71.4393 23.9288 71.2059 24.3088 71.0193 24.8021C70.8326 25.2821 70.7393 25.9154 70.7393 26.7021C70.7393 27.1288 70.7859 27.5554 70.8793 27.9821C70.9859 28.4088 71.1459 28.7888 71.3593 29.1221C71.5859 29.4554 71.8726 29.7288 72.2193 29.9421C72.5659 30.1421 72.9859 30.2421 73.4793 30.2421C74.1459 30.2421 74.6926 30.0354 75.1193 29.6221C75.5593 29.2088 75.8326 28.6288 75.9393 27.8821H78.2193C78.0059 29.2288 77.4926 30.2621 76.6793 30.9821C75.8793 31.6888 74.8126 32.0421 73.4793 32.0421C72.6659 32.0421 71.9459 31.9088 71.3193 31.6421C70.7059 31.3621 70.1859 30.9888 69.7593 30.5221C69.3326 30.0421 69.0059 29.4754 68.7793 28.8221C68.5659 28.1688 68.4593 27.4621 68.4593 26.7021C68.4593 25.9288 68.5659 25.2021 68.7793 24.5221C68.9926 23.8421 69.3126 23.2554 69.7393 22.7621C70.1659 22.2554 70.6926 21.8621 71.3193 21.5821C71.9593 21.2888 72.7059 21.1421 73.5593 21.1421C74.1593 21.1421 74.7259 21.2221 75.2593 21.3821C75.8059 21.5288 76.2859 21.7554 76.6993 22.0621C77.1259 22.3688 77.4726 22.7554 77.7393 23.2221C78.0059 23.6888 78.1659 24.2421 78.2193 24.8821H75.9393ZM81.8726 21.4221H84.0126V23.4221H84.0526C84.1192 23.1421 84.2459 22.8688 84.4326 22.6021C84.6326 22.3354 84.8659 22.0954 85.1326 21.8821C85.4126 21.6554 85.7192 21.4754 86.0526 21.3421C86.3859 21.2088 86.7259 21.1421 87.0726 21.1421C87.3392 21.1421 87.5192 21.1488 87.6126 21.1621C87.7192 21.1754 87.8259 21.1888 87.9326 21.2021V23.4021C87.7726 23.3754 87.6059 23.3554 87.4326 23.3421C87.2726 23.3154 87.1126 23.3021 86.9526 23.3021C86.5659 23.3021 86.1992 23.3821 85.8526 23.5421C85.5192 23.6888 85.2259 23.9154 84.9726 24.2221C84.7192 24.5154 84.5192 24.8821 84.3726 25.3221C84.2259 25.7621 84.1526 26.2688 84.1526 26.8421V31.7621H81.8726V21.4221ZM97.4522 25.6821C97.4256 25.3221 97.3456 24.9754 97.2122 24.6421C97.0922 24.3088 96.9189 24.0221 96.6922 23.7821C96.4789 23.5288 96.2122 23.3288 95.8922 23.1821C95.5856 23.0221 95.2389 22.9421 94.8522 22.9421C94.4522 22.9421 94.0856 23.0154 93.7522 23.1621C93.4322 23.2954 93.1522 23.4888 92.9122 23.7421C92.6856 23.9821 92.4989 24.2688 92.3522 24.6021C92.2189 24.9354 92.1456 25.2954 92.1322 25.6821H97.4522ZM92.1322 27.1821C92.1322 27.5821 92.1856 27.9688 92.2922 28.3421C92.4122 28.7154 92.5856 29.0421 92.8122 29.3221C93.0389 29.6021 93.3256 29.8288 93.6722 30.0021C94.0189 30.1621 94.4322 30.2421 94.9122 30.2421C95.5789 30.2421 96.1122 30.1021 96.5122 29.8221C96.9256 29.5288 97.2322 29.0954 97.4322 28.5221H99.5922C99.4722 29.0821 99.2656 29.5821 98.9722 30.0221C98.6789 30.4621 98.3256 30.8354 97.9122 31.1421C97.4989 31.4354 97.0322 31.6554 96.5122 31.8021C96.0056 31.9621 95.4722 32.0421 94.9122 32.0421C94.0989 32.0421 93.3789 31.9088 92.7522 31.6421C92.1256 31.3754 91.5922 31.0021 91.1522 30.5221C90.7256 30.0421 90.3989 29.4688 90.1722 28.8021C89.9589 28.1354 89.8522 27.4021 89.8522 26.6021C89.8522 25.8688 89.9656 25.1754 90.1922 24.5221C90.4322 23.8554 90.7656 23.2754 91.1922 22.7821C91.6322 22.2754 92.1589 21.8754 92.7722 21.5821C93.3856 21.2888 94.0789 21.1421 94.8522 21.1421C95.6656 21.1421 96.3922 21.3154 97.0322 21.6621C97.6856 21.9954 98.2256 22.4421 98.6522 23.0021C99.0789 23.5621 99.3856 24.2088 99.5722 24.9421C99.7722 25.6621 99.8256 26.4088 99.7322 27.1821H92.1322ZM113.006 31.7621H110.846V30.3621H110.806C110.499 30.9621 110.052 31.3954 109.466 31.6621C108.879 31.9154 108.259 32.0421 107.606 32.0421C106.792 32.0421 106.079 31.9021 105.466 31.6221C104.866 31.3288 104.366 30.9354 103.966 30.4421C103.566 29.9488 103.266 29.3688 103.066 28.7021C102.866 28.0221 102.766 27.2954 102.766 26.5221C102.766 25.5888 102.892 24.7821 103.146 24.1021C103.399 23.4221 103.732 22.8621 104.146 22.4221C104.572 21.9821 105.052 21.6621 105.586 21.4621C106.132 21.2488 106.686 21.1421 107.246 21.1421C107.566 21.1421 107.892 21.1754 108.226 21.2421C108.559 21.2954 108.879 21.3888 109.186 21.5221C109.492 21.6554 109.772 21.8288 110.026 22.0421C110.292 22.2421 110.512 22.4821 110.686 22.7621H110.726V17.4821H113.006V31.7621ZM105.046 26.7021C105.046 27.1421 105.099 27.5754 105.206 28.0021C105.326 28.4288 105.499 28.8088 105.726 29.1421C105.966 29.4754 106.266 29.7421 106.626 29.9421C106.986 30.1421 107.412 30.2421 107.906 30.2421C108.412 30.2421 108.846 30.1354 109.206 29.9221C109.579 29.7088 109.879 29.4288 110.106 29.0821C110.346 28.7354 110.519 28.3488 110.626 27.9221C110.746 27.4821 110.806 27.0354 110.806 26.5821C110.806 25.4354 110.546 24.5421 110.026 23.9021C109.519 23.2621 108.826 22.9421 107.946 22.9421C107.412 22.9421 106.959 23.0554 106.586 23.2821C106.226 23.4954 105.926 23.7821 105.686 24.1421C105.459 24.4888 105.292 24.8888 105.186 25.3421C105.092 25.7821 105.046 26.2354 105.046 26.7021ZM124.392 25.6821C124.365 25.3221 124.285 24.9754 124.152 24.6421C124.032 24.3088 123.859 24.0221 123.632 23.7821C123.419 23.5288 123.152 23.3288 122.832 23.1821C122.525 23.0221 122.179 22.9421 121.792 22.9421C121.392 22.9421 121.025 23.0154 120.692 23.1621C120.372 23.2954 120.092 23.4888 119.852 23.7421C119.625 23.9821 119.439 24.2688 119.292 24.6021C119.159 24.9354 119.085 25.2954 119.072 25.6821H124.392ZM119.072 27.1821C119.072 27.5821 119.125 27.9688 119.232 28.3421C119.352 28.7154 119.525 29.0421 119.752 29.3221C119.979 29.6021 120.265 29.8288 120.612 30.0021C120.959 30.1621 121.372 30.2421 121.852 30.2421C122.519 30.2421 123.052 30.1021 123.452 29.8221C123.865 29.5288 124.172 29.0954 124.372 28.5221H126.532C126.412 29.0821 126.205 29.5821 125.912 30.0221C125.619 30.4621 125.265 30.8354 124.852 31.1421C124.439 31.4354 123.972 31.6554 123.452 31.8021C122.945 31.9621 122.412 32.0421 121.852 32.0421C121.039 32.0421 120.319 31.9088 119.692 31.6421C119.065 31.3754 118.532 31.0021 118.092 30.5221C117.665 30.0421 117.339 29.4688 117.112 28.8021C116.899 28.1354 116.792 27.4021 116.792 26.6021C116.792 25.8688 116.905 25.1754 117.132 24.5221C117.372 23.8554 117.705 23.2754 118.132 22.7821C118.572 22.2754 119.099 21.8754 119.712 21.5821C120.325 21.2888 121.019 21.1421 121.792 21.1421C122.605 21.1421 123.332 21.3154 123.972 21.6621C124.625 21.9954 125.165 22.4421 125.592 23.0021C126.019 23.5621 126.325 24.2088 126.512 24.9421C126.712 25.6621 126.765 26.4088 126.672 27.1821H119.072ZM130.205 21.4221H132.365V22.9421L132.405 22.9821C132.752 22.4088 133.205 21.9621 133.765 21.6421C134.325 21.3088 134.945 21.1421 135.625 21.1421C136.759 21.1421 137.652 21.4354 138.305 22.0221C138.959 22.6088 139.285 23.4888 139.285 24.6621V31.7621H137.005V25.2621C136.979 24.4488 136.805 23.8621 136.485 23.5021C136.165 23.1288 135.665 22.9421 134.985 22.9421C134.599 22.9421 134.252 23.0154 133.945 23.1621C133.639 23.2954 133.379 23.4888 133.165 23.7421C132.952 23.9821 132.785 24.2688 132.665 24.6021C132.545 24.9354 132.485 25.2888 132.485 25.6621V31.7621H130.205V21.4221ZM142.45 21.4221H144.17V18.3221H146.45V21.4221H148.51V23.1221H146.45V28.6421C146.45 28.8821 146.456 29.0888 146.47 29.2621C146.496 29.4354 146.543 29.5821 146.61 29.7021C146.69 29.8221 146.803 29.9154 146.95 29.9821C147.096 30.0354 147.296 30.0621 147.55 30.0621C147.71 30.0621 147.87 30.0621 148.03 30.0621C148.19 30.0488 148.35 30.0221 148.51 29.9821V31.7421C148.256 31.7688 148.01 31.7954 147.77 31.8221C147.53 31.8488 147.283 31.8621 147.03 31.8621C146.43 31.8621 145.943 31.8088 145.57 31.7021C145.21 31.5821 144.923 31.4154 144.71 31.2021C144.51 30.9754 144.37 30.6954 144.29 30.3621C144.223 30.0288 144.183 29.6488 144.17 29.2221V23.1221H142.45V21.4221ZM152.01 17.4821H154.29V19.6421H152.01V17.4821ZM152.01 21.4221H154.29V31.7621H152.01V21.4221ZM167.234 29.4621C167.234 29.7421 167.267 29.9421 167.334 30.0621C167.414 30.1821 167.561 30.2421 167.774 30.2421C167.841 30.2421 167.921 30.2421 168.014 30.2421C168.107 30.2421 168.214 30.2288 168.334 30.2021V31.7821C168.254 31.8088 168.147 31.8354 168.014 31.8621C167.894 31.9021 167.767 31.9354 167.634 31.9621C167.501 31.9888 167.367 32.0088 167.234 32.0221C167.101 32.0354 166.987 32.0421 166.894 32.0421C166.427 32.0421 166.041 31.9488 165.734 31.7621C165.427 31.5754 165.227 31.2488 165.134 30.7821C164.681 31.2221 164.121 31.5421 163.454 31.7421C162.801 31.9421 162.167 32.0421 161.554 32.0421C161.087 32.0421 160.641 31.9754 160.214 31.8421C159.787 31.7221 159.407 31.5421 159.074 31.3021C158.754 31.0488 158.494 30.7354 158.294 30.3621C158.107 29.9754 158.014 29.5288 158.014 29.0221C158.014 28.3821 158.127 27.8621 158.354 27.4621C158.594 27.0621 158.901 26.7488 159.274 26.5221C159.661 26.2954 160.087 26.1354 160.554 26.0421C161.034 25.9354 161.514 25.8554 161.994 25.8021C162.407 25.7221 162.801 25.6688 163.174 25.6421C163.547 25.6021 163.874 25.5421 164.154 25.4621C164.447 25.3821 164.674 25.2621 164.834 25.1021C165.007 24.9288 165.094 24.6754 165.094 24.3421C165.094 24.0488 165.021 23.8088 164.874 23.6221C164.741 23.4354 164.567 23.2954 164.354 23.2021C164.154 23.0954 163.927 23.0288 163.674 23.0021C163.421 22.9621 163.181 22.9421 162.954 22.9421C162.314 22.9421 161.787 23.0754 161.374 23.3421C160.961 23.6088 160.727 24.0221 160.674 24.5821H158.394C158.434 23.9154 158.594 23.3621 158.874 22.9221C159.154 22.4821 159.507 22.1288 159.934 21.8621C160.374 21.5954 160.867 21.4088 161.414 21.3021C161.961 21.1954 162.521 21.1421 163.094 21.1421C163.601 21.1421 164.101 21.1954 164.594 21.3021C165.087 21.4088 165.527 21.5821 165.914 21.8221C166.314 22.0621 166.634 22.3754 166.874 22.7621C167.114 23.1354 167.234 23.5954 167.234 24.1421V29.4621ZM164.954 26.5821C164.607 26.8088 164.181 26.9488 163.674 27.0021C163.167 27.0421 162.661 27.1088 162.154 27.2021C161.914 27.2421 161.681 27.3021 161.454 27.3821C161.227 27.4488 161.027 27.5488 160.854 27.6821C160.681 27.8021 160.541 27.9688 160.434 28.1821C160.341 28.3821 160.294 28.6288 160.294 28.9221C160.294 29.1754 160.367 29.3888 160.514 29.5621C160.661 29.7354 160.834 29.8754 161.034 29.9821C161.247 30.0754 161.474 30.1421 161.714 30.1821C161.967 30.2221 162.194 30.2421 162.394 30.2421C162.647 30.2421 162.921 30.2088 163.214 30.1421C163.507 30.0754 163.781 29.9621 164.034 29.8021C164.301 29.6421 164.521 29.4421 164.694 29.2021C164.867 28.9488 164.954 28.6421 164.954 28.2821V26.5821ZM171.547 17.4821H173.827V31.7621H171.547V17.4821ZM179.832 28.4421C179.898 29.1088 180.152 29.5754 180.592 29.8421C181.032 30.1088 181.558 30.2421 182.172 30.2421C182.385 30.2421 182.625 30.2288 182.892 30.2021C183.172 30.1621 183.432 30.0954 183.672 30.0021C183.912 29.9088 184.105 29.7754 184.252 29.6021C184.412 29.4154 184.485 29.1754 184.472 28.8821C184.458 28.5888 184.352 28.3488 184.152 28.1621C183.952 27.9754 183.692 27.8288 183.372 27.7221C183.065 27.6021 182.712 27.5021 182.312 27.4221C181.912 27.3421 181.505 27.2554 181.092 27.1621C180.665 27.0688 180.252 26.9554 179.852 26.8221C179.465 26.6888 179.112 26.5088 178.792 26.2821C178.485 26.0554 178.238 25.7688 178.052 25.4221C177.865 25.0621 177.772 24.6221 177.772 24.1021C177.772 23.5421 177.905 23.0754 178.172 22.7021C178.452 22.3154 178.798 22.0088 179.212 21.7821C179.638 21.5421 180.105 21.3754 180.612 21.2821C181.132 21.1888 181.625 21.1421 182.092 21.1421C182.625 21.1421 183.132 21.2021 183.612 21.3221C184.105 21.4288 184.545 21.6088 184.932 21.8621C185.332 22.1154 185.658 22.4488 185.912 22.8621C186.178 23.2621 186.345 23.7488 186.412 24.3221H184.032C183.925 23.7754 183.672 23.4088 183.272 23.2221C182.885 23.0354 182.438 22.9421 181.932 22.9421C181.772 22.9421 181.578 22.9554 181.352 22.9821C181.138 23.0088 180.932 23.0621 180.732 23.1421C180.545 23.2088 180.385 23.3154 180.252 23.4621C180.118 23.5954 180.052 23.7754 180.052 24.0021C180.052 24.2821 180.145 24.5088 180.332 24.6821C180.532 24.8554 180.785 25.0021 181.092 25.1221C181.412 25.2288 181.772 25.3221 182.172 25.4021C182.572 25.4821 182.985 25.5688 183.412 25.6621C183.825 25.7554 184.232 25.8688 184.632 26.0021C185.032 26.1354 185.385 26.3154 185.692 26.5421C186.012 26.7688 186.265 27.0554 186.452 27.4021C186.652 27.7488 186.752 28.1754 186.752 28.6821C186.752 29.2954 186.612 29.8154 186.332 30.2421C186.052 30.6688 185.685 31.0154 185.232 31.2821C184.792 31.5488 184.298 31.7421 183.752 31.8621C183.205 31.9821 182.665 32.0421 182.132 32.0421C181.478 32.0421 180.872 31.9688 180.312 31.8221C179.765 31.6754 179.285 31.4554 178.872 31.1621C178.472 30.8554 178.152 30.4821 177.912 30.0421C177.685 29.5888 177.565 29.0554 177.552 28.4421H179.832Z" fill="black"/>
<path d="M16.6434 52.0954H18.8934V59.5834C18.8934 60.0154 18.9114 60.4534 18.9474 60.8974C18.9954 61.3414 19.1154 61.7434 19.3074 62.1034C19.5114 62.4514 19.8114 62.7394 20.2074 62.9674C20.6154 63.1954 21.1854 63.3094 21.9174 63.3094C22.6494 63.3094 23.2134 63.1954 23.6094 62.9674C24.0174 62.7394 24.3174 62.4514 24.5094 62.1034C24.7134 61.7434 24.8334 61.3414 24.8694 60.8974C24.9174 60.4534 24.9414 60.0154 24.9414 59.5834V52.0954H27.1914V60.3214C27.1914 61.1494 27.0654 61.8694 26.8134 62.4814C26.5614 63.0934 26.2014 63.6094 25.7334 64.0294C25.2774 64.4374 24.7254 64.7434 24.0774 64.9474C23.4294 65.1514 22.7094 65.2534 21.9174 65.2534C21.1254 65.2534 20.4054 65.1514 19.7574 64.9474C19.1094 64.7434 18.5514 64.4374 18.0834 64.0294C17.6274 63.6094 17.2734 63.0934 17.0214 62.4814C16.7694 61.8694 16.6434 61.1494 16.6434 60.3214V52.0954ZM32.2977 61.9594C32.3577 62.5594 32.5857 62.9794 32.9817 63.2194C33.3777 63.4594 33.8517 63.5794 34.4037 63.5794C34.5957 63.5794 34.8117 63.5674 35.0517 63.5434C35.3037 63.5074 35.5377 63.4474 35.7537 63.3634C35.9697 63.2794 36.1437 63.1594 36.2757 63.0034C36.4197 62.8354 36.4857 62.6194 36.4737 62.3554C36.4617 62.0914 36.3657 61.8754 36.1857 61.7074C36.0057 61.5394 35.7717 61.4074 35.4837 61.3114C35.2077 61.2034 34.8897 61.1134 34.5297 61.0414C34.1697 60.9694 33.8037 60.8914 33.4317 60.8074C33.0477 60.7234 32.6757 60.6214 32.3157 60.5014C31.9677 60.3814 31.6497 60.2194 31.3617 60.0154C31.0857 59.8114 30.8637 59.5534 30.6957 59.2414C30.5277 58.9174 30.4437 58.5214 30.4437 58.0534C30.4437 57.5494 30.5637 57.1294 30.8037 56.7934C31.0557 56.4454 31.3677 56.1694 31.7397 55.9654C32.1237 55.7494 32.5437 55.5994 32.9997 55.5154C33.4677 55.4314 33.9117 55.3894 34.3317 55.3894C34.8117 55.3894 35.2677 55.4434 35.6997 55.5514C36.1437 55.6474 36.5397 55.8094 36.8877 56.0374C37.2477 56.2654 37.5417 56.5654 37.7697 56.9374C38.0097 57.2974 38.1597 57.7354 38.2197 58.2514H36.0777C35.9817 57.7594 35.7537 57.4294 35.3937 57.2614C35.0457 57.0934 34.6437 57.0094 34.1877 57.0094C34.0437 57.0094 33.8697 57.0214 33.6657 57.0454C33.4737 57.0694 33.2877 57.1174 33.1077 57.1894C32.9397 57.2494 32.7957 57.3454 32.6757 57.4774C32.5557 57.5974 32.4957 57.7594 32.4957 57.9634C32.4957 58.2154 32.5797 58.4194 32.7477 58.5754C32.9277 58.7314 33.1557 58.8634 33.4317 58.9714C33.7197 59.0674 34.0437 59.1514 34.4037 59.2234C34.7637 59.2954 35.1357 59.3734 35.5197 59.4574C35.8917 59.5414 36.2577 59.6434 36.6177 59.7634C36.9777 59.8834 37.2957 60.0454 37.5717 60.2494C37.8597 60.4534 38.0877 60.7114 38.2557 61.0234C38.4357 61.3354 38.5257 61.7194 38.5257 62.1754C38.5257 62.7274 38.3997 63.1954 38.1477 63.5794C37.8957 63.9634 37.5657 64.2754 37.1577 64.5154C36.7617 64.7554 36.3177 64.9294 35.8257 65.0374C35.3337 65.1454 34.8477 65.1994 34.3677 65.1994C33.7797 65.1994 33.2337 65.1334 32.7297 65.0014C32.2377 64.8694 31.8057 64.6714 31.4337 64.4074C31.0737 64.1314 30.7857 63.7954 30.5697 63.3994C30.3657 62.9914 30.2577 62.5114 30.2457 61.9594H32.2977ZM47.7337 59.4754C47.7097 59.1514 47.6377 58.8394 47.5177 58.5394C47.4097 58.2394 47.2537 57.9814 47.0497 57.7654C46.8577 57.5374 46.6177 57.3574 46.3297 57.2254C46.0537 57.0814 45.7417 57.0094 45.3937 57.0094C45.0337 57.0094 44.7037 57.0754 44.4037 57.2074C44.1157 57.3274 43.8637 57.5014 43.6477 57.7294C43.4437 57.9454 43.2757 58.2034 43.1437 58.5034C43.0237 58.8034 42.9577 59.1274 42.9457 59.4754H47.7337ZM42.9457 60.8254C42.9457 61.1854 42.9937 61.5334 43.0897 61.8694C43.1977 62.2054 43.3537 62.4994 43.5577 62.7514C43.7617 63.0034 44.0197 63.2074 44.3317 63.3634C44.6437 63.5074 45.0157 63.5794 45.4477 63.5794C46.0477 63.5794 46.5277 63.4534 46.8877 63.2014C47.2597 62.9374 47.5357 62.5474 47.7157 62.0314H49.6597C49.5517 62.5354 49.3657 62.9854 49.1017 63.3814C48.8377 63.7774 48.5197 64.1134 48.1477 64.3894C47.7757 64.6534 47.3557 64.8514 46.8877 64.9834C46.4317 65.1274 45.9517 65.1994 45.4477 65.1994C44.7157 65.1994 44.0677 65.0794 43.5037 64.8394C42.9397 64.5994 42.4597 64.2634 42.0637 63.8314C41.6797 63.3994 41.3857 62.8834 41.1817 62.2834C40.9897 61.6834 40.8937 61.0234 40.8937 60.3034C40.8937 59.6434 40.9957 59.0194 41.1997 58.4314C41.4157 57.8314 41.7157 57.3094 42.0997 56.8654C42.4957 56.4094 42.9697 56.0494 43.5217 55.7854C44.0737 55.5214 44.6977 55.3894 45.3937 55.3894C46.1257 55.3894 46.7797 55.5454 47.3557 55.8574C47.9437 56.1574 48.4297 56.5594 48.8137 57.0634C49.1977 57.5674 49.4737 58.1494 49.6417 58.8094C49.8217 59.4574 49.8697 60.1294 49.7857 60.8254H42.9457ZM52.6056 55.6414H54.5316V57.4414H54.5676C54.6276 57.1894 54.7416 56.9434 54.9096 56.7034C55.0896 56.4634 55.2996 56.2474 55.5396 56.0554C55.7916 55.8514 56.0676 55.6894 56.3676 55.5694C56.6676 55.4494 56.9736 55.3894 57.2856 55.3894C57.5256 55.3894 57.6876 55.3954 57.7716 55.4074C57.8676 55.4194 57.9636 55.4314 58.0596 55.4434V57.4234C57.9156 57.3994 57.7656 57.3814 57.6096 57.3694C57.4656 57.3454 57.3216 57.3334 57.1776 57.3334C56.8296 57.3334 56.4996 57.4054 56.1876 57.5494C55.8876 57.6814 55.6236 57.8854 55.3956 58.1614C55.1676 58.4254 54.9876 58.7554 54.8556 59.1514C54.7236 59.5474 54.6576 60.0034 54.6576 60.5194V64.9474H52.6056V55.6414ZM60.5101 55.6414H62.4541V57.0094L62.4901 57.0454C62.8021 56.5294 63.2101 56.1274 63.7141 55.8394C64.2181 55.5394 64.7761 55.3894 65.3881 55.3894C66.4081 55.3894 67.2121 55.6534 67.8001 56.1814C68.3881 56.7094 68.6821 57.5014 68.6821 58.5574V64.9474H66.6301V59.0974C66.6061 58.3654 66.4501 57.8374 66.1621 57.5134C65.8741 57.1774 65.4241 57.0094 64.8121 57.0094C64.4641 57.0094 64.1521 57.0754 63.8761 57.2074C63.6001 57.3274 63.3661 57.5014 63.1741 57.7294C62.9821 57.9454 62.8321 58.2034 62.7241 58.5034C62.6161 58.8034 62.5621 59.1214 62.5621 59.4574V64.9474H60.5101V55.6414ZM79.9001 62.8774C79.9001 63.1294 79.9301 63.3094 79.9901 63.4174C80.0621 63.5254 80.1941 63.5794 80.3861 63.5794C80.4461 63.5794 80.5181 63.5794 80.6021 63.5794C80.6861 63.5794 80.7821 63.5674 80.8901 63.5434V64.9654C80.8181 64.9894 80.7221 65.0134 80.6021 65.0374C80.4941 65.0734 80.3801 65.1034 80.2601 65.1274C80.1401 65.1514 80.0201 65.1694 79.9001 65.1814C79.7801 65.1934 79.6781 65.1994 79.5941 65.1994C79.1741 65.1994 78.8261 65.1154 78.5501 64.9474C78.2741 64.7794 78.0941 64.4854 78.0101 64.0654C77.6021 64.4614 77.0981 64.7494 76.4981 64.9294C75.9101 65.1094 75.3401 65.1994 74.7881 65.1994C74.3681 65.1994 73.9661 65.1394 73.5821 65.0194C73.1981 64.9114 72.8561 64.7494 72.5561 64.5334C72.2681 64.3054 72.0341 64.0234 71.8541 63.6874C71.6861 63.3394 71.6021 62.9374 71.6021 62.4814C71.6021 61.9054 71.7041 61.4374 71.9081 61.0774C72.1241 60.7174 72.4001 60.4354 72.7361 60.2314C73.0841 60.0274 73.4681 59.8834 73.8881 59.7994C74.3201 59.7034 74.7521 59.6314 75.1841 59.5834C75.5561 59.5114 75.9101 59.4634 76.2461 59.4394C76.5821 59.4034 76.8761 59.3494 77.1281 59.2774C77.3921 59.2054 77.5961 59.0974 77.7401 58.9534C77.8961 58.7974 77.9741 58.5694 77.9741 58.2694C77.9741 58.0054 77.9081 57.7894 77.7761 57.6214C77.6561 57.4534 77.5001 57.3274 77.3081 57.2434C77.1281 57.1474 76.9241 57.0874 76.6961 57.0634C76.4681 57.0274 76.2521 57.0094 76.0481 57.0094C75.4721 57.0094 74.9981 57.1294 74.6261 57.3694C74.2541 57.6094 74.0441 57.9814 73.9961 58.4854H71.9441C71.9801 57.8854 72.1241 57.3874 72.3761 56.9914C72.6281 56.5954 72.9461 56.2774 73.3301 56.0374C73.7261 55.7974 74.1701 55.6294 74.6621 55.5334C75.1541 55.4374 75.6581 55.3894 76.1741 55.3894C76.6301 55.3894 77.0801 55.4374 77.5241 55.5334C77.9681 55.6294 78.3641 55.7854 78.7121 56.0014C79.0721 56.2174 79.3601 56.4994 79.5761 56.8474C79.7921 57.1834 79.9001 57.5974 79.9001 58.0894V62.8774ZM77.8481 60.2854C77.5361 60.4894 77.1521 60.6154 76.6961 60.6634C76.2401 60.6994 75.7841 60.7594 75.3281 60.8434C75.1121 60.8794 74.9021 60.9334 74.6981 61.0054C74.4941 61.0654 74.3141 61.1554 74.1581 61.2754C74.0021 61.3834 73.8761 61.5334 73.7801 61.7254C73.6961 61.9054 73.6541 62.1274 73.6541 62.3914C73.6541 62.6194 73.7201 62.8114 73.8521 62.9674C73.9841 63.1234 74.1401 63.2494 74.3201 63.3454C74.5121 63.4294 74.7161 63.4894 74.9321 63.5254C75.1601 63.5614 75.3641 63.5794 75.5441 63.5794C75.7721 63.5794 76.0181 63.5494 76.2821 63.4894C76.5461 63.4294 76.7921 63.3274 77.0201 63.1834C77.2601 63.0394 77.4581 62.8594 77.6141 62.6434C77.7701 62.4154 77.8481 62.1394 77.8481 61.8154V60.2854ZM83.368 55.6414H85.312V56.9374H85.366C85.522 56.7094 85.69 56.4994 85.87 56.3074C86.05 56.1154 86.248 55.9534 86.464 55.8214C86.692 55.6894 86.95 55.5874 87.238 55.5154C87.526 55.4314 87.856 55.3894 88.228 55.3894C88.792 55.3894 89.314 55.5154 89.794 55.7674C90.286 56.0194 90.634 56.4094 90.838 56.9374C91.186 56.4574 91.588 56.0794 92.044 55.8034C92.5 55.5274 93.07 55.3894 93.754 55.3894C94.738 55.3894 95.5 55.6294 96.04 56.1094C96.592 56.5894 96.868 57.3934 96.868 58.5214V64.9474H94.816V59.5114C94.816 59.1394 94.804 58.8034 94.78 58.5034C94.756 58.1914 94.684 57.9274 94.564 57.7114C94.456 57.4834 94.288 57.3094 94.06 57.1894C93.832 57.0694 93.52 57.0094 93.124 57.0094C92.428 57.0094 91.924 57.2254 91.612 57.6574C91.3 58.0894 91.144 58.7014 91.144 59.4934V64.9474H89.092V58.9714C89.092 58.3234 88.972 57.8374 88.732 57.5134C88.504 57.1774 88.078 57.0094 87.454 57.0094C87.19 57.0094 86.932 57.0634 86.68 57.1714C86.44 57.2794 86.224 57.4354 86.032 57.6394C85.852 57.8434 85.702 58.0954 85.582 58.3954C85.474 58.6954 85.42 59.0374 85.42 59.4214V64.9474H83.368V55.6414ZM106.68 59.4754C106.656 59.1514 106.584 58.8394 106.464 58.5394C106.356 58.2394 106.2 57.9814 105.996 57.7654C105.804 57.5374 105.564 57.3574 105.276 57.2254C105 57.0814 104.688 57.0094 104.34 57.0094C103.98 57.0094 103.65 57.0754 103.35 57.2074C103.062 57.3274 102.81 57.5014 102.594 57.7294C102.39 57.9454 102.222 58.2034 102.09 58.5034C101.97 58.8034 101.904 59.1274 101.892 59.4754H106.68ZM101.892 60.8254C101.892 61.1854 101.94 61.5334 102.036 61.8694C102.144 62.2054 102.3 62.4994 102.504 62.7514C102.708 63.0034 102.966 63.2074 103.278 63.3634C103.59 63.5074 103.962 63.5794 104.394 63.5794C104.994 63.5794 105.474 63.4534 105.834 63.2014C106.206 62.9374 106.482 62.5474 106.662 62.0314H108.606C108.498 62.5354 108.312 62.9854 108.048 63.3814C107.784 63.7774 107.466 64.1134 107.094 64.3894C106.722 64.6534 106.302 64.8514 105.834 64.9834C105.378 65.1274 104.898 65.1994 104.394 65.1994C103.662 65.1994 103.014 65.0794 102.45 64.8394C101.886 64.5994 101.406 64.2634 101.01 63.8314C100.626 63.3994 100.332 62.8834 100.128 62.2834C99.9361 61.6834 99.8401 61.0234 99.8401 60.3034C99.8401 59.6434 99.9421 59.0194 100.146 58.4314C100.362 57.8314 100.662 57.3094 101.046 56.8654C101.442 56.4094 101.916 56.0494 102.468 55.7854C103.02 55.5214 103.644 55.3894 104.34 55.3894C105.072 55.3894 105.726 55.5454 106.302 55.8574C106.89 56.1574 107.376 56.5594 107.76 57.0634C108.144 57.5674 108.42 58.1494 108.588 58.8094C108.768 59.4574 108.816 60.1294 108.732 60.8254H101.892ZM111.714 62.5174H114.216V64.9474H111.714V62.5174ZM111.714 55.8394H114.216V58.2694H111.714V55.8394Z" fill="black"/>
<path d="M16.7874 74.0954H22.4574C23.3694 74.0954 24.1134 74.2274 24.6894 74.4914C25.2654 74.7554 25.7094 75.0854 26.0214 75.4814C26.3334 75.8774 26.5434 76.3094 26.6514 76.7774C26.7714 77.2454 26.8314 77.6774 26.8314 78.0734C26.8314 78.4694 26.7714 78.9014 26.6514 79.3694C26.5434 79.8254 26.3334 80.2514 26.0214 80.6474C25.7094 81.0434 25.2654 81.3734 24.6894 81.6374C24.1134 81.8894 23.3694 82.0154 22.4574 82.0154H19.0374V86.9474H16.7874V74.0954ZM19.0374 80.1794H22.3314C22.5834 80.1794 22.8414 80.1434 23.1054 80.0714C23.3694 79.9994 23.6094 79.8854 23.8254 79.7294C24.0534 79.5614 24.2334 79.3454 24.3654 79.0814C24.5094 78.8054 24.5814 78.4634 24.5814 78.0554C24.5814 77.6354 24.5214 77.2874 24.4014 77.0114C24.2814 76.7354 24.1194 76.5194 23.9154 76.3634C23.7114 76.1954 23.4774 76.0814 23.2134 76.0214C22.9494 75.9614 22.6674 75.9314 22.3674 75.9314H19.0374V80.1794ZM37.5593 84.8774C37.5593 85.1294 37.5893 85.3094 37.6493 85.4174C37.7213 85.5254 37.8533 85.5794 38.0453 85.5794C38.1053 85.5794 38.1773 85.5794 38.2613 85.5794C38.3453 85.5794 38.4413 85.5674 38.5493 85.5434V86.9654C38.4773 86.9894 38.3813 87.0134 38.2613 87.0374C38.1533 87.0734 38.0393 87.1034 37.9193 87.1274C37.7993 87.1514 37.6793 87.1694 37.5593 87.1814C37.4393 87.1934 37.3373 87.1994 37.2533 87.1994C36.8333 87.1994 36.4853 87.1154 36.2093 86.9474C35.9333 86.7794 35.7533 86.4854 35.6693 86.0654C35.2613 86.4614 34.7573 86.7494 34.1573 86.9294C33.5693 87.1094 32.9993 87.1994 32.4473 87.1994C32.0273 87.1994 31.6253 87.1394 31.2413 87.0194C30.8573 86.9114 30.5153 86.7494 30.2153 86.5334C29.9273 86.3054 29.6933 86.0234 29.5133 85.6874C29.3453 85.3394 29.2613 84.9374 29.2613 84.4814C29.2613 83.9054 29.3633 83.4374 29.5673 83.0774C29.7833 82.7174 30.0593 82.4354 30.3953 82.2314C30.7433 82.0274 31.1273 81.8834 31.5473 81.7994C31.9793 81.7034 32.4113 81.6314 32.8433 81.5834C33.2153 81.5114 33.5693 81.4634 33.9053 81.4394C34.2413 81.4034 34.5353 81.3494 34.7873 81.2774C35.0513 81.2054 35.2553 81.0974 35.3993 80.9534C35.5553 80.7974 35.6333 80.5694 35.6333 80.2694C35.6333 80.0054 35.5673 79.7894 35.4353 79.6214C35.3153 79.4534 35.1593 79.3274 34.9673 79.2434C34.7873 79.1474 34.5833 79.0874 34.3553 79.0634C34.1273 79.0274 33.9113 79.0094 33.7073 79.0094C33.1313 79.0094 32.6573 79.1294 32.2853 79.3694C31.9133 79.6094 31.7033 79.9814 31.6553 80.4854H29.6033C29.6393 79.8854 29.7833 79.3874 30.0353 78.9914C30.2873 78.5954 30.6053 78.2774 30.9893 78.0374C31.3853 77.7974 31.8293 77.6294 32.3213 77.5334C32.8133 77.4374 33.3173 77.3894 33.8333 77.3894C34.2893 77.3894 34.7393 77.4374 35.1833 77.5334C35.6273 77.6294 36.0233 77.7854 36.3713 78.0014C36.7313 78.2174 37.0193 78.4994 37.2353 78.8474C37.4513 79.1834 37.5593 79.5974 37.5593 80.0894V84.8774ZM35.5073 82.2854C35.1953 82.4894 34.8113 82.6154 34.3553 82.6634C33.8993 82.6994 33.4433 82.7594 32.9873 82.8434C32.7713 82.8794 32.5613 82.9334 32.3573 83.0054C32.1533 83.0654 31.9733 83.1554 31.8173 83.2754C31.6613 83.3834 31.5353 83.5334 31.4393 83.7254C31.3553 83.9054 31.3133 84.1274 31.3133 84.3914C31.3133 84.6194 31.3793 84.8114 31.5113 84.9674C31.6433 85.1234 31.7993 85.2494 31.9793 85.3454C32.1713 85.4294 32.3753 85.4894 32.5913 85.5254C32.8193 85.5614 33.0233 85.5794 33.2033 85.5794C33.4313 85.5794 33.6773 85.5494 33.9413 85.4894C34.2053 85.4294 34.4513 85.3274 34.6793 85.1834C34.9193 85.0394 35.1173 84.8594 35.2733 84.6434C35.4293 84.4154 35.5073 84.1394 35.5073 83.8154V82.2854ZM42.5752 83.9594C42.6352 84.5594 42.8632 84.9794 43.2592 85.2194C43.6552 85.4594 44.1292 85.5794 44.6812 85.5794C44.8732 85.5794 45.0892 85.5674 45.3292 85.5434C45.5812 85.5074 45.8152 85.4474 46.0312 85.3634C46.2472 85.2794 46.4212 85.1594 46.5532 85.0034C46.6972 84.8354 46.7632 84.6194 46.7512 84.3554C46.7392 84.0914 46.6432 83.8754 46.4632 83.7074C46.2832 83.5394 46.0492 83.4074 45.7612 83.3114C45.4852 83.2034 45.1672 83.1134 44.8072 83.0414C44.4472 82.9694 44.0812 82.8914 43.7092 82.8074C43.3252 82.7234 42.9532 82.6214 42.5932 82.5014C42.2452 82.3814 41.9272 82.2194 41.6392 82.0154C41.3632 81.8114 41.1412 81.5534 40.9732 81.2414C40.8052 80.9174 40.7212 80.5214 40.7212 80.0534C40.7212 79.5494 40.8412 79.1294 41.0812 78.7934C41.3332 78.4454 41.6452 78.1694 42.0172 77.9654C42.4012 77.7494 42.8212 77.5994 43.2772 77.5154C43.7452 77.4314 44.1892 77.3894 44.6092 77.3894C45.0892 77.3894 45.5452 77.4434 45.9772 77.5514C46.4212 77.6474 46.8172 77.8094 47.1652 78.0374C47.5252 78.2654 47.8192 78.5654 48.0472 78.9374C48.2872 79.2974 48.4372 79.7354 48.4972 80.2514H46.3552C46.2592 79.7594 46.0312 79.4294 45.6712 79.2614C45.3232 79.0934 44.9212 79.0094 44.4652 79.0094C44.3212 79.0094 44.1472 79.0214 43.9432 79.0454C43.7512 79.0694 43.5652 79.1174 43.3852 79.1894C43.2172 79.2494 43.0732 79.3454 42.9532 79.4774C42.8332 79.5974 42.7732 79.7594 42.7732 79.9634C42.7732 80.2154 42.8572 80.4194 43.0252 80.5754C43.2052 80.7314 43.4332 80.8634 43.7092 80.9714C43.9972 81.0674 44.3212 81.1514 44.6812 81.2234C45.0412 81.2954 45.4132 81.3734 45.7972 81.4574C46.1692 81.5414 46.5352 81.6434 46.8952 81.7634C47.2552 81.8834 47.5732 82.0454 47.8492 82.2494C48.1372 82.4534 48.3652 82.7114 48.5332 83.0234C48.7132 83.3354 48.8032 83.7194 48.8032 84.1754C48.8032 84.7274 48.6772 85.1954 48.4252 85.5794C48.1732 85.9634 47.8432 86.2754 47.4352 86.5154C47.0392 86.7554 46.5952 86.9294 46.1032 87.0374C45.6112 87.1454 45.1252 87.1994 44.6452 87.1994C44.0572 87.1994 43.5112 87.1334 43.0072 87.0014C42.5152 86.8694 42.0832 86.6714 41.7112 86.4074C41.3512 86.1314 41.0632 85.7954 40.8472 85.3994C40.6432 84.9914 40.5352 84.5114 40.5232 83.9594H42.5752ZM53.1692 83.9594C53.2292 84.5594 53.4572 84.9794 53.8532 85.2194C54.2492 85.4594 54.7232 85.5794 55.2752 85.5794C55.4672 85.5794 55.6832 85.5674 55.9232 85.5434C56.1752 85.5074 56.4092 85.4474 56.6252 85.3634C56.8412 85.2794 57.0152 85.1594 57.1472 85.0034C57.2912 84.8354 57.3572 84.6194 57.3452 84.3554C57.3332 84.0914 57.2372 83.8754 57.0572 83.7074C56.8772 83.5394 56.6432 83.4074 56.3552 83.3114C56.0792 83.2034 55.7612 83.1134 55.4012 83.0414C55.0412 82.9694 54.6752 82.8914 54.3032 82.8074C53.9192 82.7234 53.5472 82.6214 53.1872 82.5014C52.8392 82.3814 52.5212 82.2194 52.2332 82.0154C51.9572 81.8114 51.7352 81.5534 51.5672 81.2414C51.3992 80.9174 51.3152 80.5214 51.3152 80.0534C51.3152 79.5494 51.4352 79.1294 51.6752 78.7934C51.9272 78.4454 52.2392 78.1694 52.6112 77.9654C52.9952 77.7494 53.4152 77.5994 53.8712 77.5154C54.3392 77.4314 54.7832 77.3894 55.2032 77.3894C55.6832 77.3894 56.1392 77.4434 56.5712 77.5514C57.0152 77.6474 57.4112 77.8094 57.7592 78.0374C58.1192 78.2654 58.4132 78.5654 58.6412 78.9374C58.8812 79.2974 59.0312 79.7354 59.0912 80.2514H56.9492C56.8532 79.7594 56.6252 79.4294 56.2652 79.2614C55.9172 79.0934 55.5152 79.0094 55.0592 79.0094C54.9152 79.0094 54.7412 79.0214 54.5372 79.0454C54.3452 79.0694 54.1592 79.1174 53.9792 79.1894C53.8112 79.2494 53.6672 79.3454 53.5472 79.4774C53.4272 79.5974 53.3672 79.7594 53.3672 79.9634C53.3672 80.2154 53.4512 80.4194 53.6192 80.5754C53.7992 80.7314 54.0272 80.8634 54.3032 80.9714C54.5912 81.0674 54.9152 81.1514 55.2752 81.2234C55.6352 81.2954 56.0072 81.3734 56.3912 81.4574C56.7632 81.5414 57.1292 81.6434 57.4892 81.7634C57.8492 81.8834 58.1672 82.0454 58.4432 82.2494C58.7312 82.4534 58.9592 82.7114 59.1272 83.0234C59.3072 83.3354 59.3972 83.7194 59.3972 84.1754C59.3972 84.7274 59.2712 85.1954 59.0192 85.5794C58.7672 85.9634 58.4372 86.2754 58.0292 86.5154C57.6332 86.7554 57.1892 86.9294 56.6972 87.0374C56.2052 87.1454 55.7192 87.1994 55.2392 87.1994C54.6512 87.1994 54.1052 87.1334 53.6012 87.0014C53.1092 86.8694 52.6772 86.6714 52.3052 86.4074C51.9452 86.1314 51.6572 85.7954 51.4412 85.3994C51.2372 84.9914 51.1292 84.5114 51.1172 83.9594H53.1692ZM61.3692 77.6414H63.5472L65.3652 84.5894H65.4012L67.1472 77.6414H69.2172L70.8912 84.5894H70.9272L72.8172 77.6414H74.9052L71.9892 86.9474H69.8832L68.1552 80.0354H68.1192L66.4092 86.9474H64.2492L61.3692 77.6414ZM81.751 87.1994C81.007 87.1994 80.341 87.0794 79.753 86.8394C79.177 86.5874 78.685 86.2454 78.277 85.8134C77.881 85.3814 77.575 84.8654 77.359 84.2654C77.155 83.6654 77.053 83.0054 77.053 82.2854C77.053 81.5774 77.155 80.9234 77.359 80.3234C77.575 79.7234 77.881 79.2074 78.277 78.7754C78.685 78.3434 79.177 78.0074 79.753 77.7674C80.341 77.5154 81.007 77.3894 81.751 77.3894C82.495 77.3894 83.155 77.5154 83.731 77.7674C84.319 78.0074 84.811 78.3434 85.207 78.7754C85.615 79.2074 85.921 79.7234 86.125 80.3234C86.341 80.9234 86.449 81.5774 86.449 82.2854C86.449 83.0054 86.341 83.6654 86.125 84.2654C85.921 84.8654 85.615 85.3814 85.207 85.8134C84.811 86.2454 84.319 86.5874 83.731 86.8394C83.155 87.0794 82.495 87.1994 81.751 87.1994ZM81.751 85.5794C82.207 85.5794 82.603 85.4834 82.939 85.2914C83.275 85.0994 83.551 84.8474 83.767 84.5354C83.983 84.2234 84.139 83.8754 84.235 83.4914C84.343 83.0954 84.397 82.6934 84.397 82.2854C84.397 81.8894 84.343 81.4934 84.235 81.0974C84.139 80.7014 83.983 80.3534 83.767 80.0534C83.551 79.7414 83.275 79.4894 82.939 79.2974C82.603 79.1054 82.207 79.0094 81.751 79.0094C81.295 79.0094 80.899 79.1054 80.563 79.2974C80.227 79.4894 79.951 79.7414 79.735 80.0534C79.519 80.3534 79.357 80.7014 79.249 81.0974C79.153 81.4934 79.105 81.8894 79.105 82.2854C79.105 82.6934 79.153 83.0954 79.249 83.4914C79.357 83.8754 79.519 84.2234 79.735 84.5354C79.951 84.8474 80.227 85.0994 80.563 85.2914C80.899 85.4834 81.295 85.5794 81.751 85.5794ZM89.4149 77.6414H91.3409V79.4414H91.3769C91.4369 79.1894 91.5509 78.9434 91.7189 78.7034C91.8989 78.4634 92.1089 78.2474 92.3489 78.0554C92.6009 77.8514 92.8769 77.6894 93.1769 77.5694C93.4769 77.4494 93.7829 77.3894 94.0949 77.3894C94.3349 77.3894 94.4969 77.3954 94.5809 77.4074C94.6769 77.4194 94.7729 77.4314 94.8689 77.4434V79.4234C94.7249 79.3994 94.5749 79.3814 94.4189 79.3694C94.2749 79.3454 94.1309 79.3334 93.9869 79.3334C93.6389 79.3334 93.3089 79.4054 92.9969 79.5494C92.6969 79.6814 92.4329 79.8854 92.2049 80.1614C91.9769 80.4254 91.7969 80.7554 91.6649 81.1514C91.5329 81.5474 91.4669 82.0034 91.4669 82.5194V86.9474H89.4149V77.6414ZM105.453 86.9474H103.509V85.6874H103.473C103.197 86.2274 102.795 86.6174 102.267 86.8574C101.739 87.0854 101.181 87.1994 100.593 87.1994C99.8606 87.1994 99.2186 87.0734 98.6666 86.8214C98.1266 86.5574 97.6766 86.2034 97.3166 85.7594C96.9566 85.3154 96.6866 84.7934 96.5066 84.1934C96.3266 83.5814 96.2366 82.9274 96.2366 82.2314C96.2366 81.3914 96.3506 80.6654 96.5786 80.0534C96.8066 79.4414 97.1066 78.9374 97.4786 78.5414C97.8626 78.1454 98.2946 77.8574 98.7746 77.6774C99.2666 77.4854 99.7646 77.3894 100.269 77.3894C100.557 77.3894 100.851 77.4194 101.151 77.4794C101.451 77.5274 101.739 77.6114 102.015 77.7314C102.291 77.8514 102.543 78.0074 102.771 78.1994C103.011 78.3794 103.209 78.5954 103.365 78.8474H103.401V74.0954H105.453V86.9474ZM98.2886 82.3934C98.2886 82.7894 98.3366 83.1794 98.4326 83.5634C98.5406 83.9474 98.6966 84.2894 98.9006 84.5894C99.1166 84.8894 99.3866 85.1294 99.7106 85.3094C100.035 85.4894 100.419 85.5794 100.863 85.5794C101.319 85.5794 101.709 85.4834 102.033 85.2914C102.369 85.0994 102.639 84.8474 102.843 84.5354C103.059 84.2234 103.215 83.8754 103.311 83.4914C103.419 83.0954 103.473 82.6934 103.473 82.2854C103.473 81.2534 103.239 80.4494 102.771 79.8734C102.315 79.2974 101.691 79.0094 100.899 79.0094C100.419 79.0094 100.011 79.1114 99.6746 79.3154C99.3506 79.5074 99.0806 79.7654 98.8646 80.0894C98.6606 80.4014 98.5106 80.7614 98.4146 81.1694C98.3306 81.5654 98.2886 81.9734 98.2886 82.3934ZM109.113 84.5174H111.615V86.9474H109.113V84.5174ZM109.113 77.8394H111.615V80.2694H109.113V77.8394Z" fill="black"/>
</g>
<defs>
<clipPath id="clip0_115_2">
<rect width="211.619" height="105.018" fill="white"/>
</clipPath>
</defs>
</svg>
